<?xml version="1.0" standalone="no"?>
<!DOCTYPE svg PUBLIC "-//W3C//DTD SVG 1.1//EN" "http://www.w3.org/Graphics/SVG/1.1/DTD/svg11.dtd" >
<svg xmlns="http://www.w3.org/2000/svg">
<metadata></metadata>
<defs>
<font id="alice_5medium" horiz-adv-x="10" >
<font-face units-per-em="2048" ascent="1638" descent="-410" />
<missing-glyph horiz-adv-x="359" />
<glyph horiz-adv-x="0" />
<glyph unicode="&#xd;" horiz-adv-x="359" />
<glyph unicode=" "  horiz-adv-x="359" />
<glyph unicode="&#x09;" horiz-adv-x="359" />
<glyph unicode="&#xa0;" horiz-adv-x="359" />
<glyph unicode="!" horiz-adv-x="676" d="M156 30q0 19 11 30q7 5 27 10l23 -2l23 -2l7 -1q24 0 35.5 24.5t11.5 78.5v470q0 100 -58 100l-24 -1l-21 -4q-14 3 -25 12l-10 30q0 40 33 40l55 -6l38 -6l37 7l36 5q29 0 29 -35v-21l-2 -16v-575q0 -58 11.5 -79.5t41.5 -27.5l50 7q17 0 25.5 -11t8.5 -29t-14 -32 q-13 -10 -31 -10l-69 6l-39 6l-28 2q-23 0 -76 -6l-56 -6q-50 0 -50 42z" />
<glyph unicode="&#x22;" horiz-adv-x="639" d="M131 129v60h361v-60h-361zM131 393v62h357v-62h-357z" />
<glyph unicode="#" horiz-adv-x="676" d="M55 205q0 50 30 101q22 34 67 34l18 -1q21 0 35 -20q11 -22 11 -46q0 -17 -12 -40q-12 -17 -32 -17q-31 0 -31 -19q15 -65 75 -110q48 -33 101 -33l25 2q90 9 142 65q49 58 49 139q0 161 -155 161q-17 0 -58 -6l-45 -6q-23 0 -27 29q3 21 10 29l208 246h-248 q-54 0 -58 -46l2 -34v-41q0 -56 -32 -56q-40 0 -40 49v174q0 51 47 51h407q65 0 65 -40q0 -23 -31 -57l-183 -211h11q61 0 108.5 -25.5t79.5 -81.5q14 -27 21 -60l5 -32l2 -38q0 -41 -9.5 -79t-28.5 -72q-36 -66 -102 -105t-136 -39h-10q-109 0 -186 53t-93 155z" />
<glyph unicode="$" horiz-adv-x="676" d="M28 278q3 27 16 44l292 453q38 58 88 58q57 0 57 -74v-437h97q54 0 54 -37q0 -46 -40 -46h-111v-76q0 -37 9 -65t41 -28l27 3l26 2q44 0 44 -38l1 -7q0 -42 -54 -42l-55 6q-54 6 -92 6l-51 -6q-44 -6 -62 -6q-73 0 -73 43v4q5 38 38 38l54 -5l15 2q23 3 34 33 q10 33 10 67v69h-323q-15 0 -28 10q-6 7 -14 29zM135 322h258v404z" />
<glyph unicode="%" d="M-434 1062l1 18q6 64 60.5 103.5t122.5 39.5q18 0 36 15q16 16 16 39q0 8 -6 28q8 8 27 13q15 0 23 -21q0 -36 -24 -74.5t-70 -38.5q-81 0 -88 -88q28 11 52 11q22 0 36 -6.5t21 -13.5q33 -27 33 -62l-3 -25q-4 -13 -11 -24q-11 -20 -22 -26q-38 -21 -73 -21 q-57 0 -86 29l-17 22l-18 26l-6 21zM-338 1033q0 -31 14 -48q20 -22 43 -22q30 0 37 17q15 18 15 42q0 16 -8 29q-23 20 -50 20q-19 0 -43 -21l-3 -10l-3 -4z" />
<glyph unicode="&#x26;" horiz-adv-x="676" d="M63 174q0 51 31 86q24 29 52 29l10 -1q52 -9 52 -69q0 -20 -9.5 -35.5t-28.5 -15.5q-5 0 -14 -10q3 -3 6 -14q12 -32 60 -62l50 -20q24 -6 52 -6q42 0 78.5 15t69.5 47q62 59 62 154q0 84 -50.5 138.5t-126.5 54.5q-44 0 -90 -20t-69 -48q-22 -32 -63 -41q-34 3 -34 65 v11l19 338q0 40 44 40h352q40 0 40 -79l6 -51l7 -54q0 -17 -9 -28l-31 -13q-33 3 -33 70q0 60 -59 60h-206q-30 0 -33 -31l-13 -201q23 26 76.5 45.5t108.5 19.5q65 0 121 -27t92 -93t36 -165v-18v-13l-2 -13q0 -13 -2 -19l-7 -22q-9 -40 -32 -73q-42 -66 -108.5 -99.5 t-145.5 -33.5q-93 0 -176 52.5t-83 149.5z" />
<glyph unicode="'" horiz-adv-x="731" d="M-1 541l1 25l1 13l1 17q0 21 19.5 43t54.5 45l42 22q23 9 56 15t119 6q140 0 223 -75q72 -72 72 -203v-371q-6 -66 -52 -119q-37 -46 -111 -82q-25 -11 -64 -22l-32 -5l-34 -2h-21l-21 -1h-9h-7q-64 0 -145 40q-51 30 -72 90l-10 35l-10 58q0 6 16.5 21.5t36.5 15.5 q21 0 50 -25l5 -45l7 -40l6 -17l3 -12l5 -9q6 -14 27 -37q43 -43 137 -43q168 0 192 199v365v23v27q0 90 -32 128t-65 55q-20 9 -43 15t-58 6l-28 1q-154 0 -154 -98q39 21 91 21q25 0 45 -10q55 -26 55 -90q0 -16 -2 -20l-7 -28q-3 -17 -39 -43q-38 -22 -73 -22 q-73 0 -91 11l-24 16l-25 18q-16 11 -28 39l-6 23zM105 525q0 -42 27 -63q33 -21 50 -21q25 0 49 14.5t24 60.5q0 24 -18 46t-50 22q-82 0 -82 -59z" />
<glyph unicode="(" horiz-adv-x="676" d="M84 502l5 62q6 48 6 79q0 30 -6 78l-5 47v6q0 59 40 59q26 0 26 -49l-3 -41l2 -3q36 84 97 84q26 0 54 -14t58 -38l59 -47q33 -24 60 -33l14 -3q15 0 38 15q9 5 17 25l-9 -1q-12 0 -26 11q-12 12 -15 33q11 59 56 59q30 0 48.5 -36.5t18.5 -76.5l-1 -35q0 -18 -5 -37 q-3 -21 -17 -47q-20 -44 -60 -91l-86 -98q-45 -53 -68.5 -128t-23.5 -179l1 -28v-16q0 -87 -54 -87q-53 0 -53 104q0 49 6 98t19 86q12 49 25 76l13 28l16 30q30 48 72 90l65 66l45 48q23 24 27 47l-2 3q-12 -18 -33.5 -27.5t-54.5 -9.5q-36 0 -69 17q-25 10 -59 39 q-62 59 -108 59q-60 0 -60 -107v-14l7 -39l5 -54v-6q0 -51 -44 -51q-38 5 -38 47z" />
<glyph unicode=")" horiz-adv-x="676" d="M57 230q0 35 9 69.5t29 65.5q38 63 109 93q-54 35 -75 69l-8 16l-8 24l-4 23l-2 28v7q0 74 58 138q65 70 177 70h14q99 0 157 -58t58 -149v-6q0 -110 -109 -162q69 -27 112 -86q17 -25 30 -60t13 -66v-11q0 -60 -30.5 -120.5t-95.5 -102.5t-153 -42q-125 0 -205 78 q-36 38 -57 84q-19 51 -19 98zM149 241q0 -84 57.5 -134.5t137.5 -50.5q78 0 134 55q47 50 47 126v9q0 45 -17 72q-15 32 -48 54q-57 39 -130 39h-9q-31 0 -59.5 -11.5t-53 -34.5t-43.5 -53q-15 -27 -15 -59zM196 624q0 -60 42 -90t102 -30q58 0 99.5 32t41.5 90 q0 51 -43 85t-98 34q-53 0 -98.5 -32.5t-45.5 -88.5z" />
<glyph unicode="*" horiz-adv-x="676" d="M57 358q0 171 63 307t195 163l51 5q58 0 106.5 -21.5t78 -62.5t29.5 -92q0 -22 -4 -34t-16 -27q-15 -15 -50 -23q-20 9 -38 22q-8 10 -16 43q0 36 31 49q-9 26 -44.5 45.5t-79.5 19.5q-52 0 -97 -32t-81 -109q-18 -43 -30 -91l-7 -53l-3 -56l2 -4q30 69 89 100 q26 13 59 23q32 8 66 8q65 0 123.5 -33.5t96.5 -95.5q18 -29 28 -68l7 -35l3 -38v-6q0 -99 -63 -192q-32 -46 -83 -73t-118 -27h-12q-108 0 -182.5 71t-95.5 208l-6 55zM164 244l3 -40l4 -19l7 -18q11 -28 42 -62q50 -51 126 -51q77 0 129 60t52 145v4q0 96 -56 145 q-52 43 -122 43l-13 -1q-76 0 -126 -53q-46 -49 -46 -139v-14z" />
<glyph unicode="+" d="M-537 959q6 52 43 83q11 7 43 19l27 6l31 2q52 0 96 -35q37 -31 37 -77q0 -50 -43 -84q-31 -26 -90 -35q-59 0 -104 38q-40 34 -40 83zM-451 955q0 -32 21 -56q13 -9 34 -14q12 0 32 12q23 18 23 45q0 15 -6 39t-14 29q-16 13 -33 13q-20 0 -36 -13q-21 -17 -21 -55z M-448 1107v197l17 6q17 6 34 6q20 0 50 -12v-197q-17 -15 -43 -15q-14 0 -35 6z" />
<glyph unicode="," horiz-adv-x="803" d="M-3 120q0 57 45 93q26 21 61 21l22 -3v375q0 76 -65 76h-16h-18l-13 -4l3 27l-1 20q0 15 103 15q23 0 37 -5q14 -3 38 -18q36 -24 36 -84l-1 -420l15 -7l19 -10l29 -19q9 -6 43.5 -53t63.5 -79l43 -8q42 0 65 19q39 32 53 124v549l24 11q17 6 25 6q31 0 54 -17l-2 -526 q0 -17 -12 -56.5t-28 -62.5q-29 -41 -77 -65q-48 -19 -90 -19l-17 -1l-15 -2l-16 3q-21 8 -50 35l-28 41q-11 19 -17 25l-12 16q-23 23 -44 35q-6 6 -14 7l-14 2l-16 -103q-6 -25 -41 -45q-24 -15 -66 -15q-59 0 -88 41q-18 26 -18 81zM43 124q0 -48 13 -71q14 -20 41 -20 q27 5 27 65v16l1 19v25v12q0 8 -2 10q-5 12 -22 12q-58 -6 -58 -68z" />
<glyph unicode="-" horiz-adv-x="752" d="M2 522l3 26q21 105 112 147q21 10 43.5 17.5t47 13.5t49.5 9t51 3h23h22q106 0 227 -74q26 -18 45 -57q26 -52 26 -110v-20q0 -12 -2 -28q0 -8 -1 -13.5t-8 -23.5q-20 -52 -66 -92q-44 -35 -90 -49q-95 -29 -113 -29l-109 -12l-43 -5l-36 -9q-23 -6 -42 -25t-33 -53 q0 -75 64 -75q40 0 139.5 42.5t179.5 42.5q54 0 89 -19q19 -9 34.5 -36.5t15.5 -54.5l-2 -17l-1 -265q-26 -26 -51 -26q-19 0 -29.5 9t-17.5 21l-2 257q-3 6 -3 20q0 12 -1.5 17.5t-6.5 15.5q-15 39 -63 39q-31 -5 -60 -19l-32 -16l-30 -19l-44 -27l-33 -13l-32 -9l-33 -7 l-33 -2q-58 0 -98 26q-51 32 -51 92l3 33q21 45 61 69.5t86 34.5l39 6l80 11q74 9 108 18l50 14l22 10q12 6 56 47q21 33 30 66q4 15 7 32t3 33q0 50 -30 115q-23 44 -79.5 73t-104.5 29l-18 -2l-17 1q-80 0 -123 -33.5t-61 -72.5l-9 -27l-5 -23q41 30 72 30q75 0 96 -50 q9 -24 9 -58q0 -17 -5 -29.5t-19 -26.5q-22 -20 -47 -30l-29 -9l-29 -2q-55 0 -94 32q-24 18 -38 40q-19 46 -19 76zM114 488q0 -42 21 -60q18 -15 36 -15q14 0 29 7q16 3 27 20q6 8 9 17l4 18q0 33 -19 58l-19 6l-18 2q-30 0 -48.5 -18.5t-21.5 -34.5z" />
<glyph unicode="." horiz-adv-x="611" d="M-89 1007q0 45 33 102t95 99q24 18 65 28l38 8l48 3l37 2q73 0 144 -28q18 -6 36 -18q9 -5 13 -8q13 -9 26 -21q36 -30 50 -66l8 -28l10 -46q4 -25 4.5 -40.5t0.5 -30.5q-18 -129 -90 -182q-61 -42 -114 -53q-12 -8 -12 -29l1 -9v-8l1 -469l1 -10v13v12v-21q18 15 64 15 q45 0 81 -30t36 -91q0 -54 -36 -81q-36 -24 -83 -24l-19 -4l-18 -1q-48 0 -74 22.5t-36 39.5l-10 30l-3 31l-1 28v57v434q0 78 25 94l41 23q63 26 96 81q18 31 27 68l7 40l3 48l1 22q0 83 -29 129t-68 65q-40 16 -59 16l-52 2q-40 0 -62.5 -10t-52.5 -35q-60 -59 -60 -162 v-13l-1 -15q0 -41 39 -93t158 -89q-39 -57 -80 -57q-138 0 -182 83t-44 152zM306 95q0 -29 16 -42l28 -17l23 -2q36 0 54.5 22t18.5 53q0 22 -20.5 44.5t-55.5 22.5q-32 0 -49 -23q-15 -18 -15 -58z" />
<glyph unicode="/" horiz-adv-x="758" d="M1 206l1 83v123v78v57q0 71 37 121q43 61 122 61q54 0 89 -22q21 -15 33 -37l8 -20q5 -13 5 -33q0 -46 -31 -77.5t-80 -31.5q-50 0 -82 39l2 -205l2 -213q3 -25 22 -51q14 -17 38 -29l26 -3q19 0 24 5l26 29q25 31 25 73l-2 179l18 11q14 6 30 6q26 0 49 -22v-184 q0 -17 21 -65q21 -39 82 -39q46 9 46 138v843l19 16q14 9 38 9q17 0 46 -24v-843q0 -51 -20 -87q-18 -39 -53 -65t-73 -26l-11 -1q-46 0 -71 21.5t-50 61.5l-23 39q-36 -86 -76 -107q-40 -17 -70 -17q-55 0 -96 34q-60 54 -70 109zM116 606q0 -31 45 -55l37 -2q16 0 37 21 q11 16 11 47q0 63 -68 63q-40 -6 -56 -35q-6 -14 -6 -39z" />
<glyph unicode="0" horiz-adv-x="791" d="M2 522l3 26q21 105 112 147q21 10 43.5 17.5t47 13.5t49.5 9t51 3h23h22q106 0 227 -74q26 -18 45 -57q26 -52 26 -110v-20q0 -12 -2 -28q0 -8 -1 -13.5t-8 -23.5q-20 -52 -66 -92q-44 -35 -90 -49q-95 -29 -113 -29l-109 -12l-43 -5l-36 -9q-23 -6 -42 -25t-33 -53 q0 -75 64 -75q43 0 143 44q54 21 97 33q21 5 42.5 8t42.5 3q55 0 87 -22q52 -34 52 -85q0 -14 -4 -23q-11 -27 -50 -27q-29 0 -44 25l-7 21l-11 30q-15 39 -67 39q-31 -5 -60 -19l-32 -16l-30 -19l-44 -27l-33 -13l-32 -9l-33 -7l-33 -2q-58 0 -98 26q-51 32 -51 92l3 33 q21 45 61 69.5t86 34.5l39 6l80 11q74 9 108 18l50 14l22 10q12 6 56 47q21 33 30 66q4 15 7 32t3 33q0 50 -30 115q-23 44 -79.5 73t-104.5 29l-18 -2l-17 1q-80 0 -123 -33.5t-61 -72.5l-9 -27l-5 -23q41 30 72 30q75 0 96 -50q9 -24 9 -58q0 -17 -5 -29.5t-19 -26.5 q-22 -20 -47 -30l-29 -9l-29 -2q-55 0 -94 32q-24 18 -38 40q-19 46 -19 76zM114 488q0 -42 21 -60q18 -15 36 -15q14 0 29 7q16 3 27 20q6 8 9 17l4 18q0 33 -19 58l-19 6l-18 2q-30 0 -48.5 -18.5t-21.5 -34.5z" />
<glyph unicode="1" horiz-adv-x="779" d="M2 164v125q23 46 49 66l18 11l7 4l-8 10l-9 6l-14 11q-36 21 -43 53v97q0 71 37 121q43 61 122 61q54 0 89 -22q21 -15 33 -37l8 -20q5 -13 5 -33q0 -46 -31 -77.5t-80 -31.5q-50 0 -82 39l-1 -122q0 -9 7 -9q8 0 34 13l20 8l18 5l29 3q42 0 71 -28q22 -25 22 -57 q0 -11 -20 -37l-9 -9l-8 -8q-25 -14 -68 -14l-31 2l-16 7l-14 6l-19 12q-6 -6 -8 -13t-9 -12v-66v-60l6 -16l10 -16l12 -18l7 -12q21 -30 66.5 -53.5t128.5 -23.5h10q35 0 63 8.5t57 30.5q68 51 68 120l-2 780q32 23 61 23q16 0 31 -9l16 -15v-778q-29 -75 -94 -120l-50 -31 l-52 -28q-68 -14 -110 -14h-40l-31 4h-19h-15l-14 2q-22 3 -38 11l-30 11l-30 15q-41 21 -76 59q-34 43 -34 66zM116 606q0 -31 45 -55l37 -2q16 0 37 21q11 16 11 47q0 63 -68 63q-40 -6 -56 -35q-6 -14 -6 -39zM144 370q0 -20 13.5 -26.5t42.5 -6.5q23 0 40 11l9 5l6 4 l1 8q-6 37 -47 37q-19 0 -40 -9.5t-25 -22.5z" />
<glyph unicode="2" horiz-adv-x="758" d="M-3 620q0 46 26.5 72.5t70.5 32.5l16 1q33 0 68 -19l6 -6l15 -20q17 -26 17 -69q0 -35 -18 -83q-6 -15 -11 -30q-8 -13 -11 -19l-37 -64q-11 -21 -18 -58q-3 -18 -5 -39t-2 -45l-2 -33l-1 -38q0 -94 45 -154l27 -2q30 0 57.5 31.5t27.5 74.5l-2 179l18 11q14 6 30 6 q26 0 49 -22v-184q0 -19 18 -61q19 -37 78 -37q21 3 37 49q8 25 12 44t4 39v843l19 16q14 9 38 9q17 0 46 -24v-843q0 -67 -52 -122.5t-94 -55.5l-20 -1q-45 0 -74 22q-26 23 -42 59l-19 41q-36 -86 -76 -107q-40 -17 -70 -17q-55 0 -96 34q-53 47 -63 101q-4 23 -7 51.5 t-3 49.5q0 65 19 113l23 37l27 41l37 58l25 58l3 -1q0 -6 -30 -6q-57 0 -81.5 32t-24.5 55zM63 636l1 -14q0 -15 13 -27q7 -6 30 -11q26 0 37 20l7 30q0 30 -16 42l-19 5q-19 0 -36 -11t-17 -34z" />
<glyph unicode="3" horiz-adv-x="606" d="M-92 854q0 48 51 102t135 54q41 0 77 -13l21 -6l23 -9l20 -8l23 -12l40 -18l37 -14q37 -10 64 -10q28 0 40 4l18 7l14 8l12 7q-3 -25 -35 -58q-22 -25 -57 -44q-75 0 -147 39l-55 27l-40 19q-31 14 -63 14q-51 0 -101 -46q78 0 167 -43.5t129 -97.5l17 -14l14 -11l-5 2 q-27 -17 -27 -73v-18l2 -12v-58l-1 -36l1 -179v-150q18 15 64 15q45 0 81 -30t36 -91q0 -54 -36 -81q-36 -24 -83 -24h-15l-14 -1l-15 1q-60 6 -89 59q-20 46 -28 87v57v430q0 9 11.5 35t51.5 60q-36 62 -128 99t-165 37q-30 0 -45 -6zM282 95q0 -29 16 -42l28 -17l23 -2 q36 0 54.5 22t18.5 53q0 22 -20.5 44.5t-55.5 22.5q-32 0 -49 -23q-15 -18 -15 -58z" />
<glyph unicode="4" horiz-adv-x="791" d="M1 624l3 23q0 39 25.5 61.5t71.5 22.5q44 0 82 -21.5t42 -64.5q0 9 13 23l7 8q23 21 62 38q38 15 89 15l22 1q97 0 163 -47t66 -136v-811q-23 -23 -49 -23q-18 0 -33 9l-20 14v811q0 85 -35 117q-37 31 -114 31q-78 0 -121 -43q-21 -23 -29 -43l-2 -56v-358q27 9 53 9 q34 0 51 -17q39 -39 39 -80q0 -36 -36 -86q-25 -25 -65 -25h-20l-17 4q-46 6 -72 44q-26 33 -33 67v421l-5 4l-16 -4q-12 0 -15 -2l-16 3q-91 24 -91 91zM49 632q0 -16 2 -19q18 -40 50 -40l14 3q12 3 22.5 16.5t10.5 44.5v12l-3 13q0 6 -6 15q-3 9 -24 21l-9 2l-6 -1h-5 q-33 0 -46 -40v-13v-14zM239 115q0 -35 11 -47q17 -21 38 -21h16l12 4q25 13 25 52q0 26 -17 43q-15 18 -48 18q-37 -12 -37 -49z" />
<glyph unicode="5" d="M-465 -325q0 48 27 83q12 12 40 24l43 10l15 2q35 0 66 -17q21 -9 53 -44t32 -107q0 -28 -9 -67q-20 -38 -37 -55t-41 -33q-20 -12 -25 -21q-34 -14 -55 -14l-11 1l-16 2l-11 3l7 9l25 22l32 23l25 24q22 25 22 55l4 51l-6 35q-12 -57 -100 -57q-64 9 -80 71zM-413 -304 q0 -8 3 -15t12.5 -18t22.5 -18q25 0 33 8q20 14 20 39q0 14 -12 32q-13 13 -43 13l-18 -4q-18 -18 -18 -37z" />
<glyph unicode="6" d="M-593 -293q0 21 12 50t23 37q31 23 91 23q15 0 38 -6q21 -9 54 -45l9 -27l4 -60l5 -119l14 -14q6 -6 23 -13l11 -2q22 0 44 41l1 68v49v38l-1 26l3 34q12 27 60 36q21 0 38 -16v-95l-1 -82l-3 -40q-68 -97 -152 -97q-18 0 -37.5 5.5t-22.5 8.5q-51 9 -74 66q-12 8 -12 69 q-26 -9 -47 -9q-26 0 -43.5 14.5t-27.5 35.5zM-547 -285q0 -44 53 -44l19 1q6 0 6 47q0 55 -23 55q-22 -3 -40 -21q-15 -18 -15 -38z" />
<glyph unicode="7" horiz-adv-x="779" d="M2 156v151q23 38 32 47q35 33 42 33l-23 14q-23 11 -51 68v78q0 39 34 79t77 60l57 27l37 10l34 5l19 1l72 4l54 -3q11 -1 27 -4t30 -7q19 -3 36 -13l21 -9l27 -13q44 -21 80 -67q9 -7 18.5 -30t9.5 -46v-524q-26 -18 -53 -18q-11 0 -26 6q-11 6 -23 16l-1 521 q0 56 -73 116q-21 17 -52.5 30t-62.5 13h-10q-82 0 -126 -21.5t-64.5 -53.5t-39.5 -79v-83q3 -2 7 -12t10 -13l51 32l23 5l25 3q11 0 37 -6l15 -9l19 -17q18 -23 18 -48q0 -27 -24 -59q-24 -26 -41 -26l-17 -1l-20 -1l-26 1l-16 5l-20 9l-21 9l-14 5q-5 -4 -7 -9l1 -149 q26 38 82 38q51 0 82 -31.5t31 -76.5q0 -27 -12 -51q-13 -22 -35 -39q-34 -23 -89 -23q-80 0 -128 60l-27 45q-6 17 -6 51zM117 123q0 -24 6 -39q12 -23 56 -35q69 0 69 64q0 32 -11 46q-15 21 -37 21q-34 0 -38 -2q-45 -18 -45 -55zM146 389q0 -6 21 -20l21 -8l23 -3 q39 0 48 36q0 18 -17 29t-40 11q-56 0 -56 -45z" />
<glyph unicode="8" horiz-adv-x="750" d="M2 183v376q0 39 34 97q21 35 57 55q38 19 83 19q28 0 78 -37q62 -45 69 -76l26 32l13 16l13 13q12 12 30 21l71 29l52 -5q34 -5 69.5 -37t35.5 -118v-11v-534q-22 -28 -50 -28q-9 0 -26 10l-24 15l-1 546q0 53 -18 80q-19 22 -59 22q-27 0 -58 -25t-54 -52l-25 -30 q-56 113 -129 113q-24 0 -55 -35q-27 -30 -30 -62l1 -394q26 38 75 38q51 0 82 -31.5t31 -76.5q0 -27 -12 -51q-13 -22 -35 -39q-34 -23 -89 -23q-71 0 -118 62q-37 52 -37 121zM115 123q0 -24 7.5 -43.5t50.5 -30.5q69 0 69 64q0 32 -11 46q-15 21 -37 21q-34 0 -38 -2 q-41 -17 -41 -55z" />
<glyph unicode="9" horiz-adv-x="787" d="M2 482q0 107 70 180q27 29 87 51l26 8l42 10q30 5 66 5l9 -1h7h15q117 0 200 -45q50 -27 87 -93q33 -56 33 -124l-1 -450q-19 -22 -49 -22q-20 0 -36 6t-17 14v248q0 14 -29.5 64.5t-58.5 80.5q-15 -117 -103 -117q-49 0 -88 33q-34 34 -34 82q0 49 33.5 81t82.5 32 q75 0 119 -39.5t78 -112.5v24q0 63 -7 102q-2 17 -3 23.5t-5 17.5q-3 13 -5 19t-9 19q-21 51 -76 91t-129 40l-47 -3q-19 -3 -35 -11q-51 -24 -71 -39q-45 -41 -45 -135l2 -25q0 -27 -13 -37l-17 -8l-24 -5q-55 0 -55 36zM275 410q6 -31 19 -47q12 -12 56 -19q54 0 54 78 q-12 55 -56 55q-73 0 -73 -67z" />
<glyph unicode=":" horiz-adv-x="880" d="M25 563l1 19q0 67 15.5 115t46.5 80q54 56 122 56q83 0 129.5 -73t46.5 -180q0 -143 -52 -210.5t-127 -67.5h-5q-80 0 -128.5 73.5t-48.5 187.5zM89 559q0 -79 26 -131q30 -63 87 -63q60 0 90 57t30 152v13q0 95 -31 138t-79 43h-6q-97 0 -116 -176zM193 -19l2 5l1 6 l442 843q3 4 15 10h19l17 -2l3 -2l3 -3l-6 -14l-439 -843q-2 -6 -17 -9l-8 -2h-17q-12 0 -15 11zM499 224l1 29q0 65 15 112t46 81q54 56 123 56q51 0 93 -33q38 -29 62 -90l16 -60q6 -33 6 -68q0 -140 -55 -210.5t-132 -70.5t-131 79q-44 67 -44 175zM563 224 q0 -75 25 -125q30 -64 86 -64q57 0 92 60q14 29 21 64l5 39l2 45v15q0 93 -30.5 136.5t-85.5 43.5q-47 0 -83 -45q-30 -45 -30 -130z" />
<glyph unicode=";" horiz-adv-x="793" d="M0 469q0 60 22.5 107t65.5 82q78 69 211 69q58 0 103 -6t71 -20q95 -45 126 -90q45 -69 45 -132q3 -3 3 -60l1 -77l1 -135q-66 -207 -303 -207h-39h-41q-106 0 -177 50t-87 124q0 75 21 105q37 49 104 49q51 0 87 -30t36 -75q-21 -103 -105 -103h-7l-4 1q62 -92 174 -92 l27 2l16 3q35 0 98.5 30t93.5 131v289q0 39 -19 83q-26 62 -73 93q-62 39 -133 39q-49 0 -87 -17q-41 -15 -69 -49q-51 -60 -51 -164q-34 -20 -63 -20q-21 0 -32 7zM104 227q0 -24 13.5 -41t36.5 -17l20 3q32 15 32 60q0 57 -60 57q-42 -8 -42 -62z" />
<glyph unicode="&#x3c;" horiz-adv-x="543" d="M140 1198v197h71v-197h-71zM353 1198v197h71v-197h-71z" />
<glyph unicode="=" d="M-537 959q6 52 43 83q11 7 43 19l27 6l31 2q52 0 96 -35q37 -31 37 -77q0 -50 -43 -84q-31 -26 -90 -35q-59 0 -104 38q-40 34 -40 83zM-451 955q0 -32 21 -56q13 -9 34 -14q12 0 32 12q23 18 23 45q0 15 -6 39t-14 29q-16 13 -33 13q-20 0 -36 -13q-21 -17 -21 -55z" />
<glyph unicode="&#x3e;" horiz-adv-x="676" d="M51 190q6 53 21 87t54 34q23 0 47 -18q20 -20 20 -49q0 -21 -14.5 -38.5t-43.5 -17.5q0 -52 54 -94q55 -38 126 -38v322q-89 17 -135 43t-72 70q-22 47 -22 102v11q0 96 71 161q30 29 72 48q21 10 41.5 15t44.5 5v97q0 42 31 42q32 0 32 -44v-95q33 0 68 -13l35 -15 q16 -6 35 -20q63 -38 80 -123l2 -20q0 -24 -15 -50q-20 -27 -50 -27q-21 0 -37 19l-13 18l-4 20q3 33 27 42q-9 45 -49 64l-22 8l-22 7l-21 3l-14 1v-285l86 -22q36 -12 72 -36.5t62 -72t26 -115.5q0 -85 -59 -153.5t-187 -92.5v-97q0 -46 -32 -46q-12 0 -21.5 11t-9.5 27 v105q-69 0 -129 27q-22 11 -55 33q-25 19 -42 44l-16 24l-14 34q-4 12 -6 25.5t-2 32.5zM172 616q0 -53 31 -85q24 -27 112 -53v269q-61 0 -102 -39.5t-41 -91.5zM378 56h4q61 0 108.5 48.5t47.5 104.5q0 60 -34.5 97.5t-125.5 53.5v-304z" />
<glyph unicode="?" horiz-adv-x="518" d="M56 17l50 34l25 18l23 20l43 48q39 51 39 115v346q0 43 -40 121t-120 109l-20 8l4 2q25 0 79 -24.5t101 -80t47 -135.5v-362q0 -76 -68 -138t-163 -81z" />
<glyph unicode="@" horiz-adv-x="676" d="M51 102l4 42q12 102 69 156t136 87l168 71q39 20 60 55q18 33 18 74q0 68 -45.5 115.5t-123.5 47.5t-124.5 -38t-46.5 -74q3 -18 19 -19q17 0 27 -14l8 -17q3 -9 3 -23q0 -30 -22 -52q-15 -14 -51 -23q-33 0 -57 39q-19 33 -19 66v13q0 35 12 65t36 60q40 50 98.5 75 t119.5 25q130 0 192 -75.5t62 -170.5q0 -47 -12 -83q-15 -42 -46 -73q-14 -13 -32.5 -25.5t-42.5 -24.5l-99 -41l-39 -13q-31 -11 -48 -22q-57 -29 -100 -70t-43 -89l3 -5q16 29 51 45.5t60 16.5l12 -1q40 -5 69 -25q31 -17 68 -53t62 -48q16 -5 32 -7h16l11 4q18 3 31 28 q11 25 11 48q0 16 -4 27q-8 -14 -38 -23q-14 3 -32 18q-12 15 -12 38q6 64 62 64q44 0 66 -34l15 -38q3 -13 5 -25.5t2 -24.5q0 -66 -41.5 -122.5t-101.5 -56.5q-42 0 -90 36l-91 68q-46 34 -90 34q-57 0 -69 -49l11 1q33 0 33 -38q0 -18 -15 -36t-38 -18q-79 0 -79 132z " />
<glyph unicode="A" d="M-633 1002q0 46 23 79q9 16 38 27q27 12 58 12l15 -1q30 -3 54 -9l22 -7l21 -10q38 -26 38 -87q0 -24 -24 -54q-25 -28 -64 -28l-13 1l13 -5l21 -8l21 -6q75 -13 123 -13l47 3l50 10q103 24 103 77l5 17q0 17 -24 40l-41 27l7 -3q6 3 7 7l2 7q26 33 77 33q35 0 64 -50 l1 -8l2 -10l-1 -22q0 -17 -2 -20l-5 -18l-5 -14l-9 -15q-8 -14 -39 -37l-31 -21l-36 -19l-47 -13q-74 -16 -120 -16h-32q-85 0 -143 16q-21 0 -51 12t-68 34q-57 35 -57 92zM-599 1433q0 39 27 63q12 12 31.5 19.5t39.5 7.5l25 1l26 -1q16 0 26 -5q10 -3 23 -13 q17 -11 28 -27q10 -25 10 -45q0 -34 -23 -66l-22 -25l-19 -16l-27 -22l-5 -4q0 -10 111 -10l68 1l49 1q19 3 52 22q16 9 33 44q15 36 24 93q3 25 63 25q59 0 59 -27l-1 -6q-36 -129 -109 -160q-37 -14 -73 -21l-39 -5l-44 -2h-30h-8h-7l-148 -2h-126q51 27 81 60 q27 33 36 73q-27 -15 -56 -15q-23 0 -50 15q-21 15 -25 47zM-550 1443q0 -26 35 -35q41 0 41 29v8v10q0 29 -37 29q-39 0 -39 -41zM-535 997q3 -30 36 -42l8 -1l12 -1q57 0 66 57l-3 17q-9 23 -21 30q-23 10 -40 10q-22 0 -43 -21q-15 -21 -15 -49z" />
<glyph unicode="B" d="M-727 1393q0 39 27 63q12 12 31.5 19.5t39.5 7.5l25 1l26 -1q16 0 26 -5q10 -3 23 -13q17 -11 28 -27q10 -25 10 -45q0 -34 -23 -66l-22 -25l-19 -16l-27 -22l-5 -4q0 -10 111 -10l68 1l49 1q19 3 52 22q16 9 33 44q15 36 24 93q3 25 63 25q59 0 59 -27l-1 -6 q-36 -129 -109 -160q-37 -14 -73 -21l-39 -5l-44 -2h-30h-8h-7l-148 -2h-126q51 27 81 60q27 33 36 73q-27 -15 -56 -15q-23 0 -50 15q-21 15 -25 47zM-725 981q0 99 87 145t220 46q61 0 115 -12q27 -6 51 -15t49 -23q90 -48 90 -147q0 -36 -33 -108q-15 -30 -104 -64 q-38 -12 -121 -12q-6 3 -7 11l3 9l4 8q61 0 88 17.5t48.5 58.5t21.5 78q0 78 -58 127q-50 41 -128 41h-17l-25 1q-105 0 -143 -59q-16 -26 -27.5 -53t-11.5 -45q0 -78 31 -119q15 -18 48 -33q33 -12 81 -12l8 -16l-3 -9l-5 -5q-107 0 -184.5 45t-77.5 145zM-678 1403 q0 -26 35 -35q41 0 41 29v8v10q0 29 -37 29q-39 0 -39 -41zM-486 985q0 19 18.5 37.5t45.5 18.5q48 0 55 -58q0 -49 -59 -49q-47 0 -59 41z" />
<glyph unicode="C" horiz-adv-x="731" d="M-1 541l1 25l1 13l1 17q0 21 19.5 43t54.5 45l42 22q23 9 56 15t119 6q140 0 223 -75q72 -72 72 -203v-371q-6 -66 -52 -119q-37 -46 -111 -82q-25 -11 -64 -22l-32 -5l-34 -2h-21l-21 -1h-9h-7q-64 0 -145 40q-51 30 -72 90l-10 35l-10 58q0 6 16.5 21.5t36.5 15.5 q21 0 50 -25l5 -45l7 -40l6 -17l3 -12l5 -9q6 -14 27 -37q43 -43 137 -43q168 0 192 199v365v23v27q0 90 -32 128t-65 55q-20 9 -43 15t-58 6l-28 1q-154 0 -154 -98q39 21 91 21q25 0 45 -10q55 -26 55 -90q0 -16 -2 -20l-7 -28q-3 -17 -39 -43q-38 -22 -73 -22 q-73 0 -91 11l-24 16l-25 18q-16 11 -28 39l-6 23zM105 525q0 -42 27 -63q33 -21 50 -21q25 0 49 14.5t24 60.5q0 24 -18 46t-50 22q-82 0 -82 -59z" />
<glyph unicode="D" horiz-adv-x="349" d="M103 66q0 28 18 47t47 26q24 0 45.5 -21.5t21.5 -54.5q0 -35 -20 -55q-19 -22 -45 -22q-29 0 -48 24t-19 56z" />
<glyph unicode="E" horiz-adv-x="750" d="M-445 1264q0 35 27 64q12 12 31.5 19.5t39.5 7.5h25h26q24 0 49 -19q17 -11 28 -27q10 -23 10 -45q0 -30 -23 -65l-17 -21l-24 -21l-20 -16l-7 -6l-5 -4q0 -10 111 -10l117 2q20 3 52 23q16 9 33.5 44t23.5 93q3 24 63 23q59 0 59 -26l-1 -5q-36 -129 -106.5 -158.5 t-158.5 -29.5h-30l-8 -1h-7l-148 -1l-126 -1q52 26 82 62q23 27 35 71q-28 -14 -56 -14q-23 0 -50 15q-21 15 -25 46zM-396 1275q0 -35 35 -35q41 0 41 29v8v9q0 30 -37 30q-39 0 -39 -41zM-345 959q6 52 43 83q11 7 43 19l27 6l31 2q52 0 96 -35q37 -31 37 -77 q0 -50 -43 -84q-31 -26 -90 -35q-59 0 -104 38q-40 34 -40 83zM-259 955q0 -32 21 -56q13 -9 34 -14q12 0 32 12q23 18 23 45q0 15 -6 39t-14 29q-16 13 -33 13q-20 0 -36 -13q-21 -17 -21 -55zM2 551v25v28q0 31 17 55l21 23q12 12 29 22q23 15 102 32l76 4l54 -1 q75 0 158 -79q63 -63 63 -211v-416q-20 -33 -52 -33l-16 1l-18 7l-22 13l1 418v23v27v28q0 93 -19 116q-27 43 -63 61q-36 15 -54 15l-28 1q-143 0 -143 -102q39 21 84 21q25 0 45 -10q55 -26 55 -90q0 -16 -2 -20l-7 -28q-3 -17 -39 -43q-38 -22 -73 -22q-70 0 -87 11 l-24 16l-25 18q-16 11 -29 41l-3 17zM106 533q0 -47 22 -63q33 -21 50 -21q25 0 49 14.5t24 60.5q0 24 -18 46t-50 22q-77 0 -77 -59z" />
<glyph unicode="F" horiz-adv-x="349" d="M91 51q0 36 19 54q25 22 54 22q38 0 61 -38.5t23 -83.5q0 -29 -5 -55t-18 -56q-21 -60 -53 -101q-15 -23 -33 -23q-15 0 -21 23l4 11l2 8l32 56q15 27 24 51q6 17 6 30l-1 12q-2 10 -27 10t-40.5 9t-24.5 48z" />
<glyph unicode="G" horiz-adv-x="349" d="M101 462l2 4q0 26 21 53q20 22 44 22t45 -22q9 -9 15.5 -22t6.5 -30q0 -36 -18 -55t-49 -25q-15 0 -44 21q-23 21 -23 54zM103 63v7q0 27 22 49q22 20 45 20q21 0 40 -17t25 -52q0 -33 -19.5 -58.5t-43.5 -25.5q-30 0 -51 21q-18 21 -18 56z" />
<glyph unicode="H" d="M-773 1342q0 28 8 47q6 21 24 45q11 20 126 47q18 0 33.5 -9.5t37.5 -31.5l29 -28l21 -7q9 0 17 4q13 0 37 18l37 36q18 18 36 18q39 0 89 -9.5t69 -28.5q37 -40 37 -93q0 -25 -18 -61q-10 -18 -17 -28t-12 -14l18 3l16 1l7 1l-7 2l-7 3l5 2q23 6 41 27q3 6 9 9l8 -17 q0 -24 -19 -50q-20 -24 -61 -24l-184 3v51q18 0 54 18.5t36 52.5q0 27 -12 63t-38 36q-21 0 -44 -16l-47 -32l-24 -13l-20 -3q-18 0 -58 31t-67 31q-47 -9 -47 -113q3 -28 23 -49t39 -21q16 0 23 20q3 20 21.5 36t37.5 16t43 -27q9 -16 10 -32q0 -27 -25 -43 q-23 -13 -63 -23q-51 0 -104 11t-73 29q-45 39 -45 112zM-539 1268q0 -9 6.5 -16t20.5 -11q20 3 20 21q0 9 -6 16t-22 10q-19 0 -19 -20z" />
<glyph unicode="I" horiz-adv-x="791" d="M0 545q0 58 42 101t107 62l38 10l22 7l29 6l46 4l39 -3q57 -6 87.5 -17.5t56.5 -31.5l32 -22l26 -17l21 -7q19 0 19 30l-2 19q-2 10 -5 13l-11 9l-16 11q11 34 61 34q46 0 62 -38l4 -32q0 -39 -30 -63q-31 -20 -71 -20q-53 0 -78 25q-42 44 -90 60q-46 17 -64 17 q-19 0 -36.5 -1t-40 -4.5t-57 -19t-62 -56.5t-27.5 -82q0 -35 16 -54q13 -16 50 -33l37 -14l17 -5l20 -1l35 -4l81 -7l37 -1q21 0 36 -4q14 0 30 -5q12 -2 18.5 -3t16.5 -5q61 -15 103 -50q24 -24 36.5 -64t12.5 -84t-18.5 -77.5t-61.5 -76.5q-109 -56 -205 -56l-22 1l-11 2 q-155 0 -244 60q-72 51 -84 116q0 75 21 105q37 49 104 49q51 0 87 -30t36 -75q-21 -103 -105 -103h-7l-4 1q54 -81 194 -94l16 -1q59 0 127 33q74 36 74 142q0 41 -18 84t-48 57.5t-77 25.5q-17 4 -42 8.5t-68 11.5q-131 15 -165 25q-43 9 -84 43q-27 24 -36 42l-5 22z M104 227q0 -24 13.5 -41t36.5 -17l20 3q32 15 32 60q0 57 -60 57q-42 -8 -42 -62z" />
<glyph unicode="J" d="M-436 1305v92h81v82h89v-82h77v-92h-73v-78h-93v78h-81z" />
<glyph unicode="K" horiz-adv-x="477" d="M33 140q0 19 12 35.5t43 38.5q51 36 88 36q33 0 72 -35.5t39 -77.5q0 -39 -39 -78q-14 -14 -36 -27t-42 -13q-47 0 -92 38t-45 83zM113 133q0 -18 17 -33.5t38 -15.5q16 0 35.5 15.5t19.5 33.5q0 21 -16.5 34t-38.5 13t-38.5 -13t-16.5 -34zM133 379v410h80v-410h-80z " />
<glyph unicode="L" horiz-adv-x="615" d="M38 602q0 52 22 93q21 43 64 75q82 61 183 61q56 0 122 -24q31 -13 55 -31.5t46 -43.5q39 -51 39 -126q0 -25 -4 -42l-7 -30q-18 -65 -81 -107l-118 -71q-59 -35 -59 -93v-14q0 -61 -37 -61l-12 3l-11 2q-20 5 -24 56q5 50 22 92q18 39 97 94l67 46l44 34q33 30 33 96 q0 48 -32 87q-30 39 -96 57l-36 5h-12q-58 0 -115 -39q-70 -52 -70 -113q0 -29 27 -53l-1 10q0 12 9 26.5t30 14.5q20 0 33 -13q15 -12 15 -36q0 -36 -27 -60q-26 -26 -61 -26q-42 0 -73 40q-15 18 -24 42l-6 23zM204 65q0 33 20 53q20 18 45 21q26 0 45 -20q20 -18 20 -53 q0 -37 -21 -61q-22 -19 -44 -19q-24 0 -44.5 22.5t-20.5 56.5z" />
<glyph unicode="M" horiz-adv-x="791" d="M-5 529l3 21l2 16l1 13l1 17q0 31 14.5 56t45.5 45l33 16q27 10 55 10l18 5q23 0 67 -27l32 -25l24 -20l33 19q24 12 24 22l38 15q33 15 60 15l21 -2q16 -7 62 -49q59 -56 59 -227v-371q-6 -66 -52 -119q-37 -46 -111 -82q-25 -11 -64 -22l-32 -5l-34 -2h-21l-21 -1h-9 h-7q-64 0 -145 40q-51 30 -72 90l-10 35l-10 58q0 6 16.5 21.5t36.5 15.5q21 0 50 -25l5 -45l7 -40l6 -17l3 -12l5 -9q6 -14 27 -37q43 -43 137 -43q168 0 192 199v365v23v27q0 86 -32 128l1 7q0 10 -17 21l-19 15l-8 3q-14 0 -56 -18l-59 -28q-23 0 -43 14l-66 44 q-24 3 -27 9l13 2q-36 -9 -51 -30q-7 -10 -12 -26l-4 -34q33 13 83 13q24 0 47.5 -11t40 -37t16.5 -56q0 -16 -2 -20l-6 -23q-6 -27 -45 -54q-44 -25 -68 -25q-74 0 -91 13l-22 15l-15 14l-12 12q-16 11 -28 39l-6 23zM101 513q0 -42 27 -63q33 -21 50 -21q25 0 47 14 q11 6 26 61l1 8q0 15 -13 29l-13 14l8 2l-28 9l-26 4q-33 0 -56 -22l-16 -19z" />
<glyph unicode="N" d="M-741 981q0 99 87 145t220 46q61 0 115 -12q27 -6 51 -15t49 -23q90 -48 90 -147q0 -18 -5 -36.5t-8.5 -27t-12.5 -23.5q-3 -11 -18 -28l-15 -12l102 2q6 -4 11 -19l-3 -15l-6 -9l-112 -2l-70 -2q-36 -12 -121 -12l-5 11l2 9l3 8q61 0 88 17.5t48.5 58.5t21.5 78 q0 78 -58 127q-24 20 -55 30.5t-73 10.5l-22 1q-126 0 -163 -59q-6 -10 -13.5 -24.5t-14.5 -29.5l-8 -23l-3 -21q0 -78 31 -119q15 -21 48 -33t81 -12q7 0 7 -14q0 -8 -7 -16q-107 0 -184.5 45t-77.5 145zM-727 1393q0 39 27 63q12 12 31.5 19.5t39.5 7.5l25 1l26 -1 q16 0 26 -5q10 -3 23 -13q17 -11 28 -27q10 -25 10 -45q0 -34 -23 -66l-22 -25l-19 -16l-27 -22l-5 -4q0 -10 111 -10l68 1l49 1q19 3 52 22q16 9 33 44q15 36 24 93q3 25 63 25q59 0 59 -27l-1 -6q-36 -129 -109 -160q-37 -14 -73 -21l-39 -5l-44 -2h-30h-8h-7l-148 -2 h-126q51 27 81 60q27 33 36 73q-27 -15 -56 -15q-23 0 -50 15q-21 15 -25 47zM-678 1403q0 -26 35 -35q41 0 41 29v8v10q0 29 -37 29q-39 0 -39 -41zM-498 975q0 18 12.5 33.5t38.5 15.5t39.5 -13t13.5 -31q0 -13 -12 -34q-7 -8 -33 -16q-59 0 -59 45z" />
<glyph unicode="O" horiz-adv-x="750" d="M-353 959q6 52 43 83q11 7 43 19l27 6l31 2q52 0 96 -35q37 -31 37 -77q0 -50 -43 -84q-31 -26 -90 -35q-59 0 -104 38q-40 34 -40 83zM-267 955q0 -32 21 -56q13 -9 34 -14q12 0 32 12q23 18 23 45q0 15 -6 39t-14 29q-16 13 -33 13q-20 0 -36 -13q-21 -17 -21 -55z M-264 1107v197l17 6q17 6 34 6q20 0 50 -12v-197q-17 -15 -43 -15q-14 0 -35 6zM2 551v25v28q0 31 17 55l21 23q12 12 29 22q23 15 102 32l76 4l54 -1q75 0 158 -79q63 -63 63 -211v-416q-20 -33 -52 -33l-16 1l-18 7l-22 13l1 418v23v27v28q0 93 -19 116q-27 43 -63 61 q-36 15 -54 15l-28 1q-143 0 -143 -102q39 21 84 21q25 0 45 -10q55 -26 55 -90q0 -16 -2 -20l-7 -28q-3 -17 -39 -43q-38 -22 -73 -22q-70 0 -87 11l-24 16l-25 18q-16 11 -29 41l-3 17zM106 533q0 -47 22 -63q33 -21 50 -21q25 0 49 14.5t24 60.5q0 24 -18 46t-50 22 q-77 0 -77 -59z" />
<glyph unicode="P" horiz-adv-x="754" d="M-17 77q0 69 27 105q36 48 107 48q44 0 88 -30q34 -28 34 -74q-9 -47 -32.5 -76.5t-72.5 -29.5h-11h-8l-7 2q15 -67 41 -100q40 -55 133 -55l30 2l11 7l12 4q116 12 160 165l2 36l1 46l-2 62l-1 63l1 33q0 23 -1.5 42t-9.5 37q-9 25 -46 62q-99 93 -288 137 q-99 20 -99 83q0 22 17.5 45.5t49.5 33.5q47 14 94 14h23l25 -2l23 -2l39 -3q57 -6 87.5 -17.5t56.5 -31.5l32 -22l26 -17l21 -7q19 0 19 30l-2 19q-2 10 -5 13l-11 9l-16 11q11 34 61 34q46 0 62 -38l4 -32q0 -39 -30 -63q-31 -20 -71 -20q-53 0 -78 25q-42 44 -90 60 q-46 17 -64 17q-41 9 -73 9q-53 0 -82 -18.5t-29 -42.5q0 -22 31 -35q92 -27 182.5 -69t135.5 -76q39 -30 52 -46l13 -18l15 -25q28 -64 28 -100v-90v-134q-15 -54 -34 -83q-12 -25 -49 -56q-41 -35 -80 -55q-22 -10 -44 -15l-35 -4l-21 -1l-6 1l-7 -4l-9 -4l-33 1h-4h-7 q-46 0 -85 10q-41 9 -87 34q-81 38 -111 187zM94 130q0 -20 12 -41q12 -17 37 -17l21 3q32 15 32 59q0 58 -61 58q-41 -9 -41 -62z" />
<glyph unicode="Q" d="M-701 969q0 73 55 117t132 53q66 21 176 21q93 0 192 -21q57 -15 108 -57q20 -17 40 -48q9 -13 13 -38l5 -23q3 -6 3 -26l1 -29l-2 -13l-2 -10q-26 -61 -77 -61q-39 0 -71 50l-2 6l5 12l16 33q21 39 21 65q0 57 -99 93q-65 20 -131 20q-47 0 -99.5 -8.5t-78.5 -19.5 l-28 -11l-4 -2l27 -1q8 0 23 -7q22 -6 39 -22q31 -25 31 -58q0 -75 -48 -117q-21 -14 -52 -21q-16 -3 -32 -5t-34 -2q-69 0 -103 47q-24 35 -24 83zM-615 1441q0 39 27 63q12 12 31.5 19.5t39.5 7.5l25 1l26 -1q16 0 26 -5q10 -3 23 -13q17 -11 28 -27q10 -25 10 -45 q0 -34 -23 -66l-22 -25l-19 -16l-27 -22l-5 -4q0 -10 111 -10l68 1l49 1q19 3 52 22q16 9 33 44q15 36 24 93q3 25 63 25q59 0 59 -27l-1 -6q-36 -129 -109 -160q-37 -14 -73 -21l-39 -5l-44 -2h-30h-8h-7l-148 -2h-126q51 27 81 60q27 33 36 73q-27 -15 -56 -15 q-23 0 -50 15q-21 15 -25 47zM-598 978q0 -82 65 -82q29 0 42 9t25 42l4 22l-1 10l-4 6q-20 45 -56 45q-30 0 -43 -7q-23 -10 -32 -45zM-566 1451q0 -26 35 -35q41 0 41 29v8v10q0 29 -37 29q-39 0 -39 -41z" />
<glyph unicode="R" horiz-adv-x="652" d="M-4 -383l6 82h658v-82h-664z" />
<glyph unicode="S" horiz-adv-x="349" d="M88 49q0 37 23.5 57.5t48.5 20.5q36 0 62 -29q24 -32 24 -93q0 -58 -22 -117l-27 -56l-16 -24q-9 -15 -19 -25q-6 -9 -23 -13q-17 0 -21 25q3 13 10 24q57 89 57 134v4q0 9 -5 13l-28 2l-21 6q-10 3 -19.5 11.5t-18.5 34.5zM95 458l2 3q0 37 19 57q14 15 42 23 q27 0 49 -22t22 -57q0 -19 -4 -27l-16 -25q-19 -25 -43 -25q-22 0 -46 21q-19 20 -25 52z" />
<glyph unicode="T" horiz-adv-x="645" d="M70 336v64h186v188h70v-188h194v-64h-194v-182h-70v182h-186z" />
<glyph unicode="U" d="M-741 981q0 99 87 145t220 46q61 0 115 -12q27 -6 51 -15t49 -23q90 -48 90 -147q0 -18 -5 -36.5t-8.5 -27t-12.5 -23.5q-3 -11 -18 -28l-15 -12l102 2q6 -4 11 -19l-3 -15l-6 -9l-112 -2l-70 -2q-36 -12 -121 -12l-5 11l2 9l3 8q61 0 88 17.5t48.5 58.5t21.5 78 q0 78 -58 127q-24 20 -55 30.5t-73 10.5l-22 1q-126 0 -163 -59q-6 -10 -13.5 -24.5t-14.5 -29.5l-8 -23l-3 -21q0 -78 31 -119q15 -21 48 -33t81 -12q7 0 7 -14q0 -8 -7 -16q-107 0 -184.5 45t-77.5 145zM-727 1393q0 39 27 63q12 12 31.5 19.5t39.5 7.5l25 1l26 -1 q16 0 26 -5q10 -3 23 -13q17 -11 28 -27q10 -25 10 -45q0 -34 -23 -66l-22 -25l-19 -16l-27 -22l-5 -4q0 -10 111 -10l68 1l49 1q19 3 52 22q16 9 33 44q15 36 24 93q3 25 63 25q59 0 59 -27l-1 -6q-36 -129 -109 -160q-37 -14 -73 -21l-39 -5l-44 -2h-30h-8h-7l-148 -2 h-126q51 27 81 60q27 33 36 73q-27 -15 -56 -15q-23 0 -50 15q-21 15 -25 47zM-678 1403q0 -26 35 -35q41 0 41 29v8v10q0 29 -37 29q-39 0 -39 -41z" />
<glyph unicode="V" horiz-adv-x="899" d="M123 101l197 233l-195 231l94 5l148 -183l149 183h97l-197 -232l221 -225h-98l-172 172l-156 -184h-88z" />
<glyph unicode="W" horiz-adv-x="676" d="M49 392l2 26q0 90 18 161.5t58 133.5q75 120 209 120h13q84 0 146.5 -51.5t96.5 -148.5q14 -43 24 -97q4 -23 7 -53t3 -56v-16q0 -60 -6.5 -110t-19.5 -93q-27 -97 -96 -169q-33 -33 -77.5 -51t-98.5 -18q-104 0 -191.5 101t-87.5 321zM137 398q0 -167 51 -255t142 -88 q29 0 55.5 6t47.5 20q42 27 69 97l17 55q3 10 5.5 20t8.5 40l9 59l3 62v34q0 73 -15.5 127.5t-47.5 97.5q-55 79 -150 79h-4q-50 0 -94 -40t-74 -128l-9 -36l-9 -58q-5 -40 -5 -86v-6z" />
<glyph unicode="X" horiz-adv-x="518" d="M103 236v362q0 81 44.5 134.5t103 80.5t81.5 27l4 -2l-20 -10q-74 -27 -118 -108t-44 -122v-346q0 -49 23 -91t61 -75q18 -15 35 -28q11 -8 31 -22l30 -19q-35 6 -60 16q-12 5 -25 11.5t-30 16.5q-51 33 -85 79q-31 50 -31 96z" />
<glyph unicode="Y" d="M-727 1393q0 39 27 63q12 12 31.5 19.5t39.5 7.5l25 1l26 -1q16 0 26 -5q10 -3 23 -13q17 -11 28 -27q10 -25 10 -45q0 -34 -23 -66l-22 -25l-19 -16l-27 -22l-5 -4q0 -10 111 -10l68 1l49 1q19 3 52 22q16 9 33 44q15 36 24 93q3 25 63 25q59 0 59 -27l-1 -6 q-36 -129 -109 -160q-37 -14 -73 -21l-39 -5l-44 -2h-30h-8h-7l-148 -2h-126q51 27 81 60q27 33 36 73q-27 -15 -56 -15q-23 0 -50 15q-21 15 -25 47zM-725 981q0 99 87 145t220 46q61 0 115 -12q27 -6 51 -15t49 -23q90 -48 90 -147q0 -36 -33 -108q-15 -30 -104 -64 q-38 -12 -121 -12q-6 3 -7 11l3 9l4 8q61 0 88 17.5t48.5 58.5t21.5 78q0 78 -58 127q-50 41 -128 41h-17l-25 1q-105 0 -143 -59q-16 -26 -27.5 -53t-11.5 -45q0 -78 31 -119q15 -18 48 -33q33 -12 81 -12l8 -16l-3 -9l-5 -5q-107 0 -184.5 45t-77.5 145zM-678 1403 q0 -26 35 -35q41 0 41 29v8v10q0 29 -37 29q-39 0 -39 -41z" />
<glyph unicode="Z" horiz-adv-x="811" d="M39 0v666h367v-45h-320v-238h219v-45h-219v-342zM426 0v389q32 15 76 15q34 0 53 -4l31 -7q37 0 62.5 -36t25.5 -74q0 -129 -168 -129l184 -150h-77l-144 125v-131zM467 199l10 -3l21 -1q44 0 65 10l21 8l19 10q6 3 12 16t12 44q0 31 -39.5 55.5t-81.5 24.5 q-26 0 -39 -10v-154z" />
<glyph unicode="[" horiz-adv-x="779" d="M-8 243q0 53 16 97l111 189l-5 -1h-8q-100 0 -100 107q0 27 9 48t32 34q32 21 84 21q35 0 78 -43q22 -28 22 -58q0 -14 -2 -19q0 -10 -5 -23l-5 -19l-9 -17q-14 -36 -47 -86l-24 -45l-14 -35l-6 -32l-2 -41l1 -40v-35q0 -55 13 -97q20 -57 61 -87q23 -14 53 -21 q16 -3 34 -5t41 -2h19q71 0 110 29.5t72 93.5l-1 575l20 12l17 6l19 2q25 0 58 -21l1 -547q-30 -107 -123 -144t-166 -37h-10h-6h-14q-248 0 -308 133q-16 58 -16 108zM70 627q0 -18 12 -32.5t30 -14.5q6 0 23 6q26 12 26 42q0 20 -14 35t-36 15q-13 0 -16 -2 q-25 -19 -25 -49z" />
<glyph unicode="\" horiz-adv-x="1292" d="M29 658q0 45 26.5 71.5t70.5 32.5l16 1q33 0 68 -19l6 -6l16 -20l8 -18q8 -19 8 -43v-8q0 -23 -9 -59q-3 -14 -27 -58l-20 -34l-17 -29l-13 -28l-11 -35l-7 -22l-4 -15l-6 -21l-8 -36l-2 -42l3 -63l2 -13q3 -26 18 -56q9 -18 29 -41q29 -32 66 -32h15l14 -1q15 0 29 6 q29 20 43 42q14 28 14 65v413l-10 -2l-18 -1q-21 0 -31 5l-24 21q-21 27 -21 53q0 28 20 57q12 17 27 25l21 10l18 2q45 0 67 -49q21 30 53 46q18 9 32 12.5t33 3.5h25l31 -1q61 0 117 -32.5t56 -122.5l1 -190l1 -178l15 -7l19 -10l29 -19q9 -6 43.5 -53t63.5 -79l43 -8 q42 0 65 19q39 32 53 124v549l24 11q17 6 25 6q31 0 54 -17l-2 -526q0 -17 -12 -56.5t-28 -62.5q-29 -41 -77 -65q-48 -19 -90 -19l-17 -1l-15 -2l-16 3q-21 8 -50 35l-28 41q-11 19 -17 25l-12 16q-23 23 -44 35q-6 6 -14 7l-14 2l-16 -103q-6 -25 -41 -45q-24 -15 -66 -15 q-59 0 -88 41q-18 26 -18 81q0 57 45 93q26 21 61 21l22 -3l-3 160l1 155v25v27q0 41 -10 67q-18 42 -80 42h-8l-11 1l-20 -6l-17 -4l-4 -2q-7 -3 -12 -11l-9 -11l-9 -15l-8 -24l-12 -38v-432q0 -34 -16.5 -67.5t-58.5 -73.5q-15 -14 -50 -23q-38 -5 -104 -5q-71 0 -117 37 q-53 47 -63 101q-4 23 -7 51.5t-3 49.5q0 64 19 112l23 38l27 40l37 59l15 31l10 27l3 -1q0 -7 -30 -7q-54 0 -81 33q-25 34 -25 55zM90 671l1 -14q0 -15 13 -27q7 -6 30 -11q26 0 37 20l7 30q0 30 -16 42l-19 5q-19 0 -36 -11t-17 -34zM299 673l1 -13q0 -15 16 -28l25 -10 q9 0 20 15l6 15l2 17q0 28 -5 38q-3 12 -22 12l-18 -2q-25 -19 -25 -44zM570 160q0 -48 13 -71q14 -20 41 -20q27 5 27 65v16l1 19v25v12q0 8 -2 10q-5 12 -22 12q-58 -6 -58 -68z" />
<glyph unicode="]" horiz-adv-x="791" d="M-2 164l1 50l1 34q48 109 193 109q58 0 100 -23q51 -27 72 -63l6 -19l13 -43l13 -36l13 -33q27 -95 90 -95l10 2q35 3 35 133v304q0 63 -12 98q-18 43 -80 84q-53 33 -135 33q-49 0 -88 -15q-36 -12 -63.5 -45.5t-42.5 -75.5q-13 -49 -13 -94q-28 -14 -56 -14 q-15 0 -35 6l-18 8q0 68 24 118q18 38 62 76q68 59 209 59q123 0 176 -21q95 -45 130 -90q45 -68 45 -132l-1 -284l-3 -42l-2 -16q0 -12 -5 -22q-6 -29 -33 -56q-36 -36 -94 -57l-47 -4q-79 0 -117 62l-20 37l-21 47q-38 174 -110 174q-90 0 -90 -90l29 8l25 5q25 0 37 -8 l19 -12q41 -30 41 -69v-14q0 -87 -49 -121q-38 -19 -66 -19q-47 0 -83 32t-52 56q-8 22 -8 78zM105 129q0 -41 20 -63.5t43 -22.5q18 0 29 17l12 35l4 38l-3 33l-5 19q-23 20 -49 20q-20 0 -43 -21l-6 -29z" />
<glyph unicode="^" d="M-609 -111l1 16q12 33 44 53q31 17 91 17q17 0 28.5 -1.5t16.5 -2.5t22 -6q8 0 24 -17q7 -7 23 -31q12 -47 30 -75q15 -29 45 -29l13 8q7 4 25 27q12 20 12 54l-1 23q0 10 11 18q9 9 24 9q23 0 36 -26l-1 -21l-4 -24q-3 -14 -20 -38l-27 -33l-33 -16q-18 -6 -35 -6l-16 1 q-54 12 -68 29l-23 29l-17 24q-11 49 -25 66t-39 17q-56 0 -63 -55q23 9 38 9l24 -3q10 -3 15 -11q9 -2 15 -13t6 -27q0 -32 -29 -55l-19 -8l-27 -5q-46 0 -66 20q-7 5 -26 33l-4 25l-1 21v4zM-535 -140q0 -20 14 -34q10 -12 30 -17q12 0 20 11q10 23 10 35q0 11 -4 19 q-15 15 -34 15q-18 0 -30 -15l-2 -4l-2 -3z" />
<glyph unicode="_" horiz-adv-x="676" d="M66 534q0 81 33 148t93 109l30 16l32 14q33 12 68 12h9q45 0 87.5 -14.5t77.5 -46.5q36 -30 64.5 -84.5t38.5 -117.5l7 -64l3 -72l-3 -82q0 -17 -2 -31t-8 -43q-30 -166 -115 -237t-176 -71q-111 0 -169 56t-58 120q0 38 22 63q18 23 50 23q21 0 37 -19q3 -6 8 -18t5 -25 q0 -39 -30 -51q12 -23 50 -47l13 -7l26 -10q20 -6 41 -6q39 0 66.5 9t51.5 32q48 42 76.5 118t28.5 182l-4 2q-18 -51 -78.5 -87.5t-128.5 -36.5q-104 0 -175 70.5t-71 195.5zM160 548q0 -85 48 -140t111 -55l5 3q87 0 136 55q41 46 41 130l-1 26l-1 30q0 10 -7 25 q-6 25 -23 49q-26 41 -65.5 57.5t-73.5 16.5h-9q-63 0 -112 -53q-21 -24 -36 -64q-13 -41 -13 -80z" />
<glyph unicode="`" horiz-adv-x="0" d="M80 455h162l53 108l51 -102h148l-105 -74l90 -147l-182 98l-172 -104l88 162z" />
<glyph unicode="a" horiz-adv-x="0" d="M-633 1002q0 46 23 79q9 16 38 27q27 12 58 12l15 -1q30 -3 54 -9l22 -7l21 -10q38 -26 38 -87q0 -24 -24 -54q-25 -28 -64 -28l-13 1l13 -5l21 -8l21 -6q75 -13 123 -13l47 3l50 10q103 24 103 77l5 17q0 17 -24 40l-41 27l7 -3q6 3 7 7l2 7q26 33 77 33q35 0 64 -50 l1 -8l2 -10l-1 -22q0 -17 -2 -20l-5 -18l-5 -14l-9 -15q-8 -14 -39 -37l-31 -21l-36 -19l-47 -13q-74 -16 -120 -16h-32q-85 0 -143 16q-21 0 -51 12t-68 34q-57 35 -57 92zM-535 997q3 -30 36 -42l8 -1l12 -1q57 0 66 57l-3 17q-9 23 -21 30q-23 10 -40 10q-22 0 -43 -21 q-15 -21 -15 -49z" />
<glyph unicode="b" d="M-725 981q0 99 87 145t220 46q61 0 115 -12q27 -6 51 -15t49 -23q90 -48 90 -147q0 -19 -5 -37.5t-8.5 -27t-12.5 -23.5q-27 -48 -111 -84q-38 -12 -121 -12q-6 3 -7 11l3 9l4 8q61 0 88 17.5t48.5 58.5t21.5 78q0 78 -58 127q-50 41 -128 41h-17l-25 1q-105 0 -143 -59 q-16 -26 -27.5 -53t-11.5 -45q0 -69 31 -119q12 -20 45.5 -32.5t83.5 -12.5l8 -16l-3 -9l-5 -5q-107 0 -184.5 45t-77.5 145zM-471 981l1 13l1 7l16 10q11 6 25 6q16 0 28 -8q24 -14 24 -34q0 -13 -5 -21l-5 -13q-15 -6 -34 -6q-51 0 -51 46z" />
<glyph unicode="c" horiz-adv-x="752" d="M2 183v364q0 51 39 101q30 33 67 51l17 8l21 6l22 4l18 3l31 1h29h23q6 -11 6 -18q0 -12 -16 -12h-9l-6 2l-27 2q-48 0 -79 -34l-18 -27l-8 -31l-10 -56v-198l1 -85l1 -81q26 38 82 38q51 0 82 -31.5t31 -76.5q0 -27 -12 -51q-13 -22 -35 -39q-34 -23 -89 -23 q-77 0 -124 62q-37 52 -37 121zM117 123q0 -24 6 -39q12 -23 56 -35q69 0 69 64q0 32 -11 46q-15 21 -37 21q-34 0 -38 -2q-45 -18 -45 -55zM312 180v365q0 52 39 100q25 29 66 52l39 13l22 5l17 3l32 1h29l23 -1q6 -11 6 -18q0 -12 -17 -12l-9 1l-6 1l-26 2q-51 0 -79 -34 q-12 -12 -18 -27l-9 -31l-9 -55v-233v-61l1 -42l1 -29q26 39 82 39q51 0 81.5 -31t30.5 -78q0 -26 -11 -48.5t-35 -41.5q-35 -23 -90 -23q-79 0 -123 62q-37 52 -37 121zM426 121q0 -24 6 -39q11 -24 57 -35q69 0 69 63q0 30 -11 47q-17 21 -37 21l-38 -2q-46 -20 -46 -55z " />
<glyph unicode="d" horiz-adv-x="801" d="M1 624l3 23q0 39 25.5 61.5t71.5 22.5q44 0 82 -21.5t42 -64.5q0 9 13 23l7 8q23 21 62 38q38 15 89 15l32 1q97 0 163 -47t66 -136v-528q-20 -18 -46 -18q-20 0 -34 7l-22 13v526q0 85 -35 117q-37 31 -124 31q-78 0 -121 -43q-24 -26 -27 -43l-2 -56l-1 -444l-1 -11 l-2 -12q-3 -15 -11 -24q-40 -64 -126 -64q-72 0 -103 70v67q3 8 31 37q22 22 59 22q31 0 52 -11v349l-5 4l-16 -3l-18 -2l-13 2q-91 24 -91 91zM41 103l1 -23q0 -6 7 -16q16 -28 38 -28l14 1q44 5 44 57l-3 33q-6 29 -53 29q-32 0 -44 -23zM49 632q0 -16 2 -19 q18 -40 50 -40l14 3q12 3 22.5 16.5t10.5 44.5v12l-3 13q0 6 -6 15q-3 9 -24 21l-9 2l-6 -1h-5q-33 0 -46 -40v-13v-14z" />
<glyph unicode="e" horiz-adv-x="750" d="M-297 959q6 52 43 83q11 7 43 19l27 6l31 2q52 0 96 -35q37 -31 37 -77q0 -50 -43 -84q-31 -26 -90 -35q-59 0 -104 38q-40 34 -40 83zM-211 955q0 -32 21 -56q13 -9 34 -14q12 0 32 12q23 18 23 45q0 15 -6 39t-14 29q-16 13 -33 13q-20 0 -36 -13q-21 -17 -21 -55z M2 551v25v28q0 31 17 55l21 23q12 12 29 22q23 15 102 32l76 4l54 -1q75 0 158 -79q63 -63 63 -211v-416q-20 -33 -52 -33l-16 1l-18 7l-22 13l1 418v23v27v28q0 93 -19 116q-27 43 -63 61q-36 15 -54 15l-28 1q-143 0 -143 -102q39 21 84 21q25 0 45 -10q55 -26 55 -90 q0 -16 -2 -20l-7 -28q-3 -17 -39 -43q-38 -22 -73 -22q-70 0 -87 11l-24 16l-25 18q-16 11 -29 41l-3 17zM106 533q0 -47 22 -63q33 -21 50 -21q25 0 49 14.5t24 60.5q0 24 -18 46t-50 22q-77 0 -77 -59z" />
<glyph unicode="f" horiz-adv-x="776" d="M2 183v364q0 39 34 79t77 60l57 27l37 10l34 5l19 1l72 4l51 -3l30 -4l30 -7q69 -15 95 -33q49 -35 70 -71.5t27 -73.5l-2 -526q-19 -16 -40 -16l-16 2l-20 5l-24 11l-1 525q0 71 -68 124q-20 14 -53 24q-15 5 -32.5 8t-34.5 3h-10q-84 0 -130 -21.5t-67 -57.5l-17 -33 l-18 -42v-198l1 -85l1 -81q26 38 82 38q51 0 82 -31.5t31 -76.5q0 -27 -12 -51q-13 -22 -35 -39q-34 -23 -89 -23q-77 0 -124 62q-37 52 -37 121zM117 123q0 -24 6 -39q12 -23 56 -35q69 0 69 64q0 32 -11 46q-15 21 -37 21q-34 0 -38 -2q-45 -18 -45 -55z" />
<glyph unicode="g" horiz-adv-x="422" d="M2 183v364q0 51 39 101q30 33 67 51l17 8l21 6l22 4l18 3l31 1h29h23q6 -11 6 -18q0 -12 -16 -12h-9l-6 2l-27 2q-48 0 -79 -34l-18 -27l-8 -31l-10 -56v-198l1 -85l1 -81q26 38 82 38q51 0 82 -31.5t31 -76.5q0 -27 -12 -51q-13 -22 -35 -39q-34 -23 -89 -23 q-77 0 -124 62q-37 52 -37 121zM117 123q0 -24 6 -39q12 -23 56 -35q69 0 69 64q0 32 -11 46q-15 21 -37 21q-34 0 -38 -2q-45 -18 -45 -55z" />
<glyph unicode="h" d="M-727 1393q0 39 27 63q12 12 31.5 19.5t39.5 7.5l25 1l26 -1q16 0 26 -5q10 -3 23 -13q17 -11 28 -27q10 -25 10 -45q0 -34 -23 -66l-22 -25l-19 -16l-27 -22l-5 -4q0 -10 111 -10l68 1l49 1q19 3 52 22q16 9 33 44q15 36 24 93q3 25 63 25q59 0 59 -27l-1 -6 q-36 -129 -109 -160q-37 -14 -73 -21l-39 -5l-44 -2h-30h-8h-7l-148 -2h-126q51 27 81 60q27 33 36 73q-27 -15 -56 -15q-23 0 -50 15q-21 15 -25 47zM-678 1403q0 -26 35 -35q41 0 41 29v8v10q0 29 -37 29q-39 0 -39 -41z" />
<glyph unicode="i" horiz-adv-x="791" d="M0 545q0 58 42 101t107 62l39 8l52 8l43 6l40 2h31q18 0 25 -2l13 -1l39 -6l42 -9q9 -2 24.5 -7t29.5 -10q123 -48 123 -119q0 -14 -5 -25q-25 -17 -51 -17q-23 0 -40 11q-15 12 -21 35q-18 66 -74 94q-19 8 -58 19l-35 5l-41 2q-19 0 -36.5 -1t-40 -4.5t-53.5 -17.5 q-40 -18 -66 -52t-26 -72q0 -42 15 -63q16 -19 50 -36l37 -14l17 -5l20 -1l35 -4l81 -7h22l35 -4q37 -3 88 -15.5t101 -54.5q17 -17 30 -56.5t13 -89.5q0 -44 -19 -78l-16 -25q-7 -9 -20 -23.5t-26 -27.5q-109 -56 -203 -56l-22 1l-11 2l-36 -3q-116 0 -208 63 q-72 51 -84 116q0 75 21 105q37 49 104 49q51 0 87 -30t36 -75q-21 -103 -105 -103h-7l-4 1q54 -81 194 -94l16 -1q59 0 127 33q74 36 74 142q0 86 -56 135q-30 27 -78.5 42t-120.5 15h-34l-31 4l-50 9l-26 4l-20 6q-49 12 -88 44q-24 21 -33 46l-5 19zM104 227 q0 -24 13.5 -41t36.5 -17l20 3q32 15 32 60q0 57 -60 57q-42 -8 -42 -62z" />
<glyph unicode="j" d="M-410 1245v197l18 6q17 6 34 6q18 0 50 -12v-197q-17 -14 -43 -14t-36 5z" />
<glyph unicode="k" horiz-adv-x="668" d="M2 551v25v28q0 31 17 55l21 23q12 12 29 22q23 15 102 32l76 4l54 -1q75 0 158 -79q63 -63 63 -211v-416q-20 -33 -52 -33l-16 1l-18 7l-22 13l1 418v23v27v28q0 93 -19 116q-27 43 -63 61q-36 15 -54 15l-28 1q-143 0 -143 -102q39 21 84 21q25 0 45 -10q55 -26 55 -90 q0 -16 -2 -20l-7 -28q-3 -17 -39 -43q-38 -22 -73 -22q-70 0 -87 11l-24 16l-25 18q-16 11 -29 41l-3 17zM106 533q0 -47 22 -63q33 -21 50 -21q25 0 49 14.5t24 60.5q0 24 -18 46t-50 22q-77 0 -77 -59z" />
<glyph unicode="l" horiz-adv-x="791" d="M-1 214q21 68 72.5 105.5t121.5 37.5q52 0 101 -26q38 -21 65 -62l23 -60l6 -24l8 -19l12 -26q45 -95 92 -95l10 2q35 3 35 133v304q0 69 -25 98q-9 17 -63 58q-67 41 -117 41h-16l-17 1h-20q-17 0 -27 -5q-57 -6 -96 -33l-29 -20l-10 -8l-9 -9l-11 -23q6 -60 77 -98 q29 -15 61.5 -23t71.5 -8q100 0 149 20l39 15l22 9l23 14q24 15 44 38q22 23 33 56q10 18 10 52v25q0 42 -49 110l7 3l17 9q17 8 37 13h7l8 1q9 0 23 -11q29 -35 29 -66v-27q0 -50 -15 -89q-39 -87 -79 -121q-57 -45 -116 -67q-42 -13 -138 -25l-23 -1l-32 -1 q-125 0 -234 61q-77 53 -77 101q3 20 12 38q7 9 43 35q98 66 250 66q59 0 102.5 -6t71.5 -20l85 -42q26 -14 39 -34q45 -68 45 -132l-1 -296q0 -42 -15 -74.5t-46 -57.5q-39 -33 -86 -49l-37 -4q-79 0 -111 50q-13 21 -26 47.5t-21 48.5q-38 174 -110 174q-88 0 -88 -88 q28 11 52 11q25 0 37 -8l19 -12q41 -30 41 -69v-14q0 -90 -41 -119q-16 -10 -34.5 -15.5t-39.5 -5.5q-55 0 -94 33l-41 55q-6 15 -6 78v27zM103 129q0 -37 21 -64l21 -16q11 -6 23 -6q18 0 29 17l12 35l4 38l-3 33l-5 19q-23 20 -49 20q-20 0 -43 -21l-7 -31z" />
<glyph unicode="m" horiz-adv-x="838" d="M2 623q0 45 26.5 71.5t70.5 32.5l16 1q33 0 68 -19l6 -6l15 -20q17 -26 17 -69q0 -39 -18 -84q-5 -14 -33 -58l-34 -54q-11 -21 -18 -58q-3 -18 -5 -39t-2 -45v-20v-21v-32l1 -21l1 -20q0 -6 1 -15.5t4 -22.5q3 -25 32 -61q29 -33 65 -33l9 -1h9q19 0 31 9t34 41 q9 18 9 65v428q0 26 8 42q8 25 28 54q39 63 145 63h23q59 0 96 -17q39 -15 61 -46q27 -36 27 -66v-581l-9 -9l-7 -6l-11 -8l-14 -3q-17 0 -40 12l-24 18v547l-3 56q-3 26 -11 40q-6 16 -30 28l-21 8l-23 3q-23 0 -35 -4q-18 0 -41 -30q-17 -29 -17 -82l1 -30v-14v-397 q0 -73 -59 -111q-36 -24 -56 -31l-28 -6l-49 -2q-44 0 -78 10q-42 9 -63 29q-60 54 -69 110l-3 30l-1 22v16v19q0 64 19 112l23 38l27 40l37 59l25 58l3 -1q0 -7 -30 -7q-54 0 -81 33q-25 34 -25 55zM63 636l1 -14q0 -15 13 -27q7 -6 30 -11q26 0 37 20l7 30q0 30 -16 42 l-19 5q-19 0 -36 -11t-17 -34z" />
<glyph unicode="n" horiz-adv-x="15" d="M-741 981q0 99 87 145t220 46q61 0 115 -12q27 -6 51 -15t49 -23q90 -48 90 -147q0 -18 -5 -36.5t-8.5 -27t-12.5 -23.5q-3 -11 -18 -28l-15 -12l102 2q6 -4 11 -19l-3 -15l-6 -9l-112 -2l-70 -2q-36 -12 -121 -12l-5 11l2 9l3 8q61 0 88 17.5t48.5 58.5t21.5 78 q0 78 -58 127q-24 20 -55 30.5t-73 10.5l-22 1q-126 0 -163 -59q-6 -10 -13.5 -24.5t-14.5 -29.5l-8 -23l-3 -21q0 -78 31 -119q15 -21 48 -33t81 -12q7 0 7 -14q0 -8 -7 -16q-107 0 -184.5 45t-77.5 145zM-471 975l16 11q14 7 25 7q9 0 22 -8q13 -6 27 -51l-22 -14l-15 -6 l-16 -2q-7 0 -17 5q-20 12 -20 58z" />
<glyph unicode="o" horiz-adv-x="801" d="M-2 640l1 8q0 42 26 65t75 23h6h7q40 0 76 -20q34 -16 47 -91v-440q29 -15 69 -61q69 -80 148 -80q35 0 49 20q41 21 41 102l-1 563l19 16q14 9 36 9q27 0 60 -24v-555v-12q-33 -92 -90.5 -127.5t-125.5 -35.5q-64 16 -87 29q-14 7 -31 20l-38 33l-42 39l-15 12 q-70 -133 -187 -133l-22 2q-10 0 -10 18l6 17l11 -1q14 0 37 11.5t36 24.5q9 12 12 26l7 46l4 33v357l-18 -2l-13 1q-92 14 -92 92v6zM45 632q0 -16 2 -19q18 -40 42 -40l14 1q12 3 23 17q6 9 6 46v12l-3 13q0 13 -8 21q-6 9 -18 15l-9 2l-6 -1h-5q-22 0 -38 -40v-13v-14z " />
<glyph unicode="p" horiz-adv-x="756" d="M0 164v105q8 58 50 78q10 3 20 11l4 2l-12 8l-12 8l-11 6q-17 9 -37 81v84q0 70 35 121q43 61 119 61q53 0 85 -22q18 -12 31 -35t13 -55q0 -49 -29 -79t-78 -30q-54 0 -78 39l2 -54l3 -87q10 0 31 11.5t39 14.5l28 3q39 0 68 -28q21 -24 21 -57q0 -11 -19 -37l-10 -10 l-7 -7q-23 -14 -65 -14l-30 2l-15 6l-15 7l-17 12l-1 -5l-1 -8q-3 -10 -8 -12v-56l-1 -60l18 -35l17 -28q23 -36 58 -54q47 -22 123 -22h10q25 0 36 1t27 7q25 9 53 31q65 51 65 120v545l15 8q17 9 35 9q27 0 53 -19v-542q-9 -45 -33 -75l-25 -26l-33 -26q-26 -20 -99 -52 q-65 -14 -105 -14h-30l-39 4l-52 3q-20 3 -31 10l-31 12l-27 14q-36 18 -72 61t-36 64zM112 606q0 -36 43 -55l36 -2q18 0 36 21q10 22 10 47q0 63 -66 63q-42 -6 -54 -35l-4 -17zM139 360q0 -16 13 -26q16 -7 41 -7q22 0 39 11l10 7l5 10q-6 37 -46 37q-19 0 -37.5 -9 t-24.5 -23z" />
<glyph unicode="q" d="M-709 985q0 73 55 117t132 53q66 21 176 21q93 0 192 -21q57 -15 108 -57q24 -21 39 -48l8 -17l6 -21l5 -23q3 -6 3 -26l1 -29l-2 -13l-2 -10q-27 -61 -77 -61q-39 0 -71 50l-2 6l5 12l16 33q21 39 21 65q0 57 -99 93q-65 20 -131 20q-47 0 -99.5 -8.5t-78.5 -19.5 l-28 -11l-4 -2l27 -1q8 0 23 -7q22 -6 39 -22q31 -25 31 -58q0 -75 -48 -117q-21 -14 -52 -21q-16 -3 -32 -5t-34 -2q-69 0 -103 47q-24 35 -24 83zM-606 994q0 -82 65 -82q29 0 42 9t25 42l4 22l-1 10l-4 6q-20 45 -56 45q-30 0 -43 -7q-23 -10 -32 -45z" />
<glyph unicode="r" horiz-adv-x="758" d="M-3 620q0 46 26.5 72.5t70.5 32.5l16 1q33 0 68 -19l6 -6l15 -20q17 -26 17 -69q0 -18 -5 -37.5t-18 -47.5l-23 -47l-30 -53q-11 -23 -34 -145l-4 -56q0 -111 54 -177l27 -2q34 0 57.5 26.5t23.5 79.5v177l-2 -2l17 11q18 9 35 9q27 0 51 -21v-184q0 -19 18 -61 q19 -37 76 -37q39 0 47 27q6 27 6 62v24v19v545q0 24 47 24q44 0 56 -23v-545q0 -30 -24.5 -88t-106.5 -88l-24 -1l-12 -2q-51 0 -77 22q-24 23 -42 60q-15 36 -19 40q-34 -86 -75 -107q-40 -17 -67 -17q-55 0 -96 34q-53 47 -63 101q-4 23 -7 51.5t-3 49.5q0 65 19 113 l51 82l36 54l25 58l3 -1q0 -6 -30 -6q-57 0 -81.5 32t-24.5 55zM53 640l1 -14q0 -11 15 -29q16 -13 38 -13q26 0 37 20l7 30q0 30 -16 42l-19 5q-36 0 -47 -7q-16 -13 -16 -34z" />
<glyph unicode="s" horiz-adv-x="848" d="M2 623q0 45 26.5 71.5t70.5 32.5l16 1q33 0 68 -19l6 -6l16 -20l8 -18q8 -19 8 -43v-8q0 -23 -9 -59q-3 -14 -27 -58l-20 -34l-17 -29l-13 -28l-11 -35l-7 -22l-4 -15l-6 -21l-8 -36l-2 -42l3 -63l2 -13q3 -26 18 -56q9 -18 29 -41q29 -32 66 -32h15l14 -1q15 0 29 6 q29 20 43 42q14 28 14 65v413l-10 -2l-18 -1q-21 0 -31 5l-24 21q-21 27 -21 53q0 28 20 57q12 17 27 25l21 10l18 2q45 0 67 -49q21 30 53 46q18 9 32 12.5t33 3.5h25l31 -1q61 0 117 -32.5t56 -122.5v-559q-24 -27 -54 -27q-10 0 -27 11l-22 18v522v25v27q0 41 -10 67 q-18 42 -80 42h-8l-11 1l-20 -6l-17 -4l-4 -2q-7 -3 -12 -11l-9 -11l-9 -15l-8 -24l-12 -38v-432q0 -34 -16.5 -67.5t-58.5 -73.5q-15 -14 -50 -23q-38 -5 -104 -5q-71 0 -117 37q-53 47 -63 101q-4 23 -7 51.5t-3 49.5q0 64 19 112l23 38l27 40l37 59l15 31l10 27l3 -1 q0 -7 -30 -7q-54 0 -81 33q-25 34 -25 55zM63 636l1 -14q0 -15 13 -27q7 -6 30 -11q26 0 37 20l7 30q0 30 -16 42l-19 5q-19 0 -36 -11t-17 -34zM272 638l1 -13q0 -15 16 -28l25 -10q9 0 20 15l6 15l2 17q0 28 -5 38q-3 12 -22 12l-18 -2q-25 -19 -25 -44z" />
<glyph unicode="t" horiz-adv-x="649" d="M-1 137q0 45 41 78.5t99 33.5q31 0 76 -33q29 -23 29 -59l-3 -23l-2 -12q-9 -30 -30 -45q-12 -11 -75 -26l216 1q11 0 24 8q18 6 26 17q10 27 10 41q0 25 -11 36.5t-22 17.5q0 56 66 56q30 0 47 -29q9 -15 12 -29l4 -30v-16q0 -14 -2 -18q0 -9 -7 -20l-24 -31 q-53 -54 -113 -54l-252 -2q-18 0 -45 15q-25 16 -42 38l-14 22l-4 16l-2 16zM4 615q0 45 40.5 78.5t99.5 33.5q31 0 76 -33q29 -23 29 -59l-3 -22l-2 -13q-9 -30 -30 -45q-13 -11 -75 -26l216 2l24 6q14 6 26 19q8 22 10 40q0 24 -11.5 36t-21.5 18q0 57 66 57q33 -3 48 -30 t15 -59l-1 -16q0 -25 -7 -36q-4 -10 -25 -32q-53 -55 -113 -55l-252 -1q-14 0 -46 15q-21 11 -41 37q-11 14 -15 25l-5 30zM97 145q0 -41 47 -41q51 0 51 43q0 48 -49 48q-42 0 -49 -50zM102 623q0 -41 47 -41q51 0 51 43q0 49 -49 49q-38 0 -49 -51z" />
<glyph unicode="u" horiz-adv-x="15" d="M-741 981q0 99 87 145t220 46q61 0 115 -12q27 -6 51 -15t49 -23q90 -48 90 -147q0 -18 -5 -36.5t-8.5 -27t-12.5 -23.5q-3 -11 -18 -28l-15 -12l102 2q6 -4 11 -19l-3 -15l-6 -9l-112 -2l-70 -2q-36 -12 -121 -12l-5 11l2 9l3 8q61 0 88 17.5t48.5 58.5t21.5 78 q0 78 -58 127q-24 20 -55 30.5t-73 10.5l-22 1q-126 0 -163 -59q-6 -10 -13.5 -24.5t-14.5 -29.5l-8 -23l-3 -21q0 -78 31 -119q15 -21 48 -33t81 -12q7 0 7 -14q0 -8 -7 -16q-107 0 -184.5 45t-77.5 145z" />
<glyph unicode="v" horiz-adv-x="793" d="M0 546q0 11 4 24q3 16 13 34q18 39 85 79q29 18 84.5 31t118.5 13q57 0 90.5 -5t47 -8.5t30.5 -12.5q95 -45 126 -90q45 -69 45 -132q3 -3 3 -60l1 -77l1 -135q-66 -207 -303 -207h-39h-41q-106 0 -177 50t-87 124q0 75 21 105q37 49 104 49q51 0 87 -30t36 -75 q-21 -103 -105 -103h-7l-4 1q62 -92 174 -92l27 2l16 3q40 0 99 29.5t90 141.5l1 229q-89 -74 -237 -74l-39 1h-25q-13 3 -27 5t-57 17q-73 23 -114.5 65.5t-41.5 97.5zM97 545q0 -38 28 -75q15 -12 69 -45q56 -31 125 -31q116 0 221 98q0 40 -16 75q-26 62 -73 93 q-62 39 -133 39q-74 0 -103 -13q-49 -21 -77 -49q-41 -49 -41 -92zM104 227q0 -24 13.5 -41t36.5 -17l20 3q32 15 32 60q0 57 -60 57q-42 -8 -42 -62z" />
<glyph unicode="w" horiz-adv-x="611" d="M-253 1140q0 18 23 37q8 8 32 14t60 6q68 0 142 -47t130 -129t83 -189l29 6l23 2q39 0 92 -36q-55 -31 -55 -58v-5l1 -3l-1 -531q18 15 64 15q45 0 81 -30t36 -91q0 -54 -36 -81q-36 -24 -83 -24h-14l-11 -1l-14 1q-75 0 -100.5 53.5t-33.5 92.5v57l4 499l-2 9 q0 56 82 92l-22 1q-41 0 -71 -21q-20 -15 -34 -33q-51 189 -150 288q-50 50 -113 78q-33 14 -66 21q-17 3 -35.5 5t-40.5 2zM306 95q0 -29 16 -42l28 -17l23 -2q36 0 54.5 22t18.5 53q0 22 -20.5 44.5t-55.5 22.5q-32 0 -49 -23q-15 -18 -15 -58z" />
<glyph unicode="x" horiz-adv-x="791" d="M-8 243q0 53 16 97l111 189l-5 -1h-8q-100 0 -100 107q0 27 9 48t32 34q32 21 84 21q35 0 78 -43q23 -28 23 -49l-1 -9q-8 -36 -24 -77l-18 -37l-26 -48l-24 -46l-14 -36l-6 -32l-2 -41l1 -40v-35q0 -55 13 -97q20 -57 61 -87q23 -14 53 -21q16 -3 34 -5t41 -2h19 q71 0 110 29.5t72 93.5l-1 860q21 29 56 29q27 0 58 -31l1 -831q-15 -51 -48 -90t-73 -54q-117 -37 -168 -37h-10h-6h-14q-248 0 -308 133q-16 58 -16 108zM70 627q0 -18 12 -32.5t30 -14.5q6 0 23 6q26 12 26 42q0 20 -14 35t-36 15q-13 0 -16 -2q-25 -19 -25 -49z" />
<glyph unicode="y" horiz-adv-x="15" d="M-725 981q0 99 87 145t220 46q61 0 115 -12q27 -6 51 -15t49 -23q90 -48 90 -147q0 -19 -5 -37.5t-8.5 -27t-12.5 -23.5q-27 -48 -111 -84q-38 -12 -121 -12q-6 3 -7 11l3 9l4 8q61 0 88 17.5t48.5 58.5t21.5 78q0 78 -58 127q-50 41 -128 41h-17l-25 1q-105 0 -143 -59 q-16 -26 -27.5 -53t-11.5 -45q0 -78 31 -119q15 -18 48 -33q33 -12 81 -12l8 -16l-3 -9l-5 -5q-107 0 -184.5 45t-77.5 145z" />
<glyph unicode="z" horiz-adv-x="758" d="M2 423v124q0 71 37 121q43 61 122 61q54 0 89 -22q21 -15 33 -37l8 -20q5 -13 5 -33q0 -46 -31 -77.5t-80 -31.5q-48 0 -80 39v-49v-156l-1 -139l1 -53q5 -42 18 -69q7 -18 33 -32l27 -2q30 0 57.5 31.5t27.5 74.5l-2 179l18 11q14 6 30 6q27 0 47 -20v-184 q0 -23 19.5 -61.5t78.5 -38.5q21 3 37 49q8 25 12 44t4 39v366q-18 -9 -38 -9q-24 0 -34 5l-21 10q-5 0 -26 27l-12 28l-4 30q0 66 84 93l31 2q39 0 61.5 -12.5t36.5 -32.5l14 -17l2 3q9 21 9 42q0 20 -8.5 39t-22.5 38l-13 13l21 16q22 10 37 10q23 0 53 -27l7 -15l4 -29 q0 -61 -78 -124v-455q0 -47 -23 -84q-20 -39 -55.5 -66.5t-67.5 -27.5l-17 -1q-51 0 -78 21q-24 21 -43 62l-17 39q-36 -86 -76 -107q-40 -17 -70 -17q-55 0 -96 34q-54 48 -64 104q-6 12 -6 288zM110 606q0 -28 51 -55l37 -2q16 0 37 21q11 16 11 47q0 63 -68 63 q-46 -6 -62 -35q-6 -14 -6 -39zM420 622q0 -21 13 -38q14 -15 36 -21q43 0 43 53v10q0 58 -49 58q-24 -3 -34 -23z" />
<glyph unicode="{" horiz-adv-x="609" d="M127 391v64h363v-64h-363z" />
<glyph unicode="|" horiz-adv-x="1235" d="M5 646q0 45 26.5 71.5t70.5 32.5l16 1q33 0 68 -19l6 -6l16 -20l8 -18q8 -19 8 -43v-8q0 -23 -9 -59q-3 -14 -27 -58l-20 -34l-17 -29l-13 -28l-11 -35l-7 -22l-4 -15l-6 -21l-8 -36l-2 -42l3 -63l2 -13q3 -26 18 -56q9 -18 29 -41q29 -32 66 -32h15l14 -1q15 0 29 6 q29 20 43 42q14 28 14 65v413l-10 -2l-18 -1q-21 0 -31 5l-24 21q-21 27 -21 53q0 28 20 57q12 17 27 25l21 10l18 2q45 0 67 -49q21 30 53 46q18 9 32 12.5t33 3.5h25l31 -1q61 0 117 -32.5t56 -122.5l1 -190v-211q31 -17 71 -62q69 -80 148 -80q35 0 49 20q41 21 41 102 l-1 563l19 16q14 9 36 9q27 0 60 -24v-555v-12q-33 -92 -90.5 -127.5t-125.5 -35.5q-64 16 -87 29q-14 7 -31 20l-38 33l-42 39l-15 12q-70 -133 -187 -133l-22 2q-10 0 -10 18l6 17l11 -1q14 0 37 11.5t36 24.5q2 3 10.5 11t10.5 15l10 42v40l-1 217l1 155v25v27 q0 41 -10 67q-18 42 -80 42h-8l-11 1l-20 -6l-17 -4l-4 -2q-7 -3 -12 -11l-9 -11l-9 -15l-8 -24l-12 -38v-432q0 -34 -16.5 -67.5t-58.5 -73.5q-15 -14 -50 -23q-38 -5 -104 -5q-71 0 -117 37q-53 47 -63 101q-4 23 -7 51.5t-3 49.5q0 64 19 112l23 38l27 40l37 59l15 31 l10 27l3 -1q0 -7 -30 -7q-54 0 -81 33q-25 34 -25 55zM66 659l1 -14q0 -15 13 -27q7 -6 30 -11q26 0 37 20l7 30q0 30 -16 42l-19 5q-19 0 -36 -11t-17 -34zM275 661l1 -13q0 -15 16 -28l25 -10q9 0 20 15l6 15l2 17q0 28 -5 38q-3 12 -22 12l-18 -2q-25 -19 -25 -44z" />
<glyph unicode="}" horiz-adv-x="533" d="M70 -75l2 5l208 611l113 343q2 10 23 10l25 2q18 0 19 -14v-7l-313 -945q-8 -18 -25 -18h-32q-13 0 -20 13z" />
<glyph unicode="~" horiz-adv-x="748" d="M37 146q0 63 43 94q53 39 100 39q60 0 140 -62q32 -26 82 -73l81 -73q25 -18 56 -26q35 0 58.5 44.5t29.5 90.5l47 -69q-78 -119 -135 -119q-13 0 -37 12l-51 37l-66 58q-65 59 -115 94t-87 35q-33 0 -62 -28q-24 -27 -24 -65q0 -42 28 -71q19 -19 45 -19q25 0 43.5 14 t18.5 35v394q0 114 60 184t136 70q93 0 147 -62.5t54 -183.5l-32 -1l-13 -1q0 90 -38.5 141t-109.5 51q-86 0 -122 -61l-13 -28l-9 -33l-7 -37l-2 -39v-299q6 -24 6 -47v-17v-12l-2 -11l-4 -24q0 -33 -34 -56.5t-77 -23.5q-42 0 -80 27q-55 46 -55 121zM119 391v45h274v-45 h-274z" />
<glyph horiz-adv-x="752" d="M5 537v10q12 59 37 100q30 46 75.5 66.5t83.5 20.5q47 0 87 -28l64 -60q15 34 45 61.5t68 27.5q23 0 37 -5q48 -12 84.5 -42.5t58.5 -80.5q2 -5 7 -23t7 -34t2 -53v-45v-13l-2 -22q0 -12 -9 -35q-12 -35 -35 -68q-18 -26 -50 -59q-54 -56 -119 -78q-60 -19 -141 -19 l-30 1l-25 4q-6 0 -7 -5q-9 0 -9 -11l2 -13l7 -17l12 -22l15 -4l29 1q58 0 115.5 28t76.5 28q66 0 73 -2q39 -6 62 -54l4 -21q0 -21 -23.5 -84.5t-23.5 -100.5q0 -52 4 -60.5t25 -14.5q11 -1 23.5 15t32.5 16q35 0 35 -27q0 -14 -43 -41q-52 -29 -102 -29q-25 0 -43 4.5 t-37 43.5l-6 13l-2 23v28l1 29q0 36 15 87l30 97q-3 11 -11 15q-5 4 -20 7h-14q-35 0 -78.5 -45.5t-107.5 -45.5q-44 0 -86 33.5t-66 82.5l-8 30l-6 27v15q-3 12 -4 18q0 9 30 9l52 -2l47 -2h12l31 3q107 21 131 32q59 22 98 81q21 34 31 77q5 30 5 84v31q0 29 -3.5 46 t-16.5 38q-17 28 -31 44t-45 22q-26 3 -61.5 -36.5t-42.5 -39.5l-51 33q-55 38 -84 38q-10 0 -19 -5q-24 -12 -36 -24q-11 -9 -23 -31l-13 -29l-7 -35q0 -13 9 -28q15 27 41.5 36.5t57.5 9.5q52 0 88 -29t36 -75q0 -31 -26 -58q-21 -21 -63 -42l-29 -10l-30 -4 q-26 0 -51 8.5t-56 26.5t-45 30q-17 15 -30 40q-7 12 -13 42zM156 455q0 -19 22 -38q21 -15 47 -15q28 0 48 12q22 16 22 41q0 23 -20 36.5t-50 13.5q-25 0 -47 -14t-22 -36z" />
<glyph horiz-adv-x="882" d="M-2 503l1 25l3 19q0 34 30 76q24 31 71 65q68 47 142 47q32 0 60.5 -7t62.5 -25q44 -21 68.5 -45t43.5 -65q8 -19 8 -43v-466q0 -8 27 -23q27 -12 70 -12q36 0 62 50q20 43 20 91v527l24 11q12 6 25 6q31 0 54 -17l-2 -526q0 -17 -12 -59l-3 -12q-3 -9 -5 -12 q-7 -21 -20 -36q-14 -23 -31.5 -39t-42.5 -25t-55 -9l-19 1h-19q-18 0 -64 25q-19 10 -33 13q-10 0 -18 -8q-14 -15 -31 -23q-11 -5 -32 -8q-15 0 -19 2l-12 6l3 11q30 38 30 54v479q0 21 -12 54q-15 41 -43 65q-39 30 -86 30q-60 0 -104 -47q-18 -21 -28 -53q-4 -19 -6 -30 t-2 -23q-3 -8 -3 -21q0 -26 6 -54.5t14 -32.5q41 27 58 33.5t41 6.5q41 0 75.5 -21.5t34.5 -56.5t-25 -61q-10 -11 -57 -22l-41 -6q-13 -3 -48.5 11.5t-49.5 17.5l-6 -9l1 -149q26 38 82 38q51 0 97 -26.5t46 -71.5q0 -37 -13.5 -58t-43.5 -42q-10 -6 -47 -17q-30 -6 -62 -6 q-75 0 -128 60l-15 21l-13 27q-5 17 -5 48v151q23 38 32 47t33 24l9 11l-2 4q-15 3 -21 8l-32 30q-12 15 -18 33l-4 19zM121 123q-3 -27 15 -50.5t47 -23.5q27 0 48 18t21 46q0 23 -18.5 42.5t-43.5 19.5q-26 0 -44.5 -12.5t-24.5 -39.5zM146 389q0 -9 19 -21q9 -4 20 -7 t23 -3q21 0 36 9t15 27q0 21 -17 30.5t-40 9.5q-20 0 -40 -12q-16 -13 -16 -33z" />
<glyph horiz-adv-x="756" d="M0 164v105q8 58 50 78l22 2l-17 14q-36 36 -53 100v84q0 70 35 121q43 61 119 61q53 0 85 -22q18 -12 31 -35t13 -55q0 -49 -29 -79t-78 -30q-54 0 -78 39l-4 -22l-4 -42q0 -50 29 -89q20 -28 60 -43q26 -9 50 -9v-53h-13h-10q-7 2 -10 2l-41 9l-15 4l-21 7q-7 -7 -9 -12 l-6 -13l-2 -2v-120l3 -43q15 -25 40.5 -43t51.5 -18q21 0 33 8l23 15l22 23q21 26 21 47l-2 179l18 11q14 6 30 6q27 0 47 -20v-184l3 -39q3 -15 20 -28q13 -9 23 -12l31 -2h17q33 0 51 44q14 37 14 80v545l15 8q17 9 35 9q27 0 53 -19v-542q-21 -90 -56 -134 q-43 -52 -112 -52h-24l-30 3q-11 3 -27.5 15.5t-29.5 32.5l-13 28l-17 39q-36 -92 -116 -117q-20 -6 -38 -6t-26.5 1t-22 6t-27 10.5t-27.5 13.5t-26.5 19t-36.5 42q-11 14 -17.5 37t-6.5 37zM114 616q0 25 17 42q17 18 34 18q15 0 36 -18t21 -45q0 -25 -17 -42.5t-34 -17.5 q-14 0 -37 18q-20 18 -20 45z" />
<glyph horiz-adv-x="791" d="M0 545q0 60 43 104q22 22 43 33l35 15l28 11l22 7l16 3l51 10q21 3 55 3l30 1l14 1q21 0 42 -7l31 -12q31 -11 57 -31l32 -22l26 -17l21 -7q19 0 19 30l-2 15q-3 15 -5 17l-27 20q11 34 61 34q46 0 62 -38l4 -32q0 -39 -30 -63q-31 -20 -71 -20q-53 0 -78 25 q-42 44 -90 60q-46 17 -64 17q-19 0 -36.5 -1t-40 -4.5t-57 -19t-62 -56.5t-27.5 -82q0 -35 16 -54q13 -16 50 -33q24 -11 52 -19q26 -4 35.5 -4.5t21.5 -0.5q15 0 42 6l39 7h30q14 0 33 -4l39 -6q12 0 16 -2q6 0 23 -7l38 -13q13 -3 19 -8q21 -9 44 -29.5t39 -59.5 q8 -20 12 -38t4 -40q0 -27 -3.5 -46t-16.5 -45q-18 -43 -67 -92l-46 -22l-37 -16q-64 -23 -118 -23q-35 0 -71 9q-19 3 -33.5 9.5t-35.5 19.5l-12 -12q-10 -13 -20 -17l-13 -2l-15 1l-16 6l-14 8v371l-36 18l-35 19l-23 16q-24 21 -36 62l-5 22zM244 78l14 -7l26 -12l39 -11 l42 -3q34 0 68 8.5t63 24.5q18 12 37 56q9 22 14 44.5t5 46.5q0 26 -6.5 53.5t-20.5 52.5q-6 12 -16 19l-23 14l-17 8l-40 12q-33 9 -71 9q-20 0 -31 -2q-15 -1 -19.5 -2t-22.5 -6l-41 -10v-295z" />
<glyph unicode="&#xad;" horiz-adv-x="752" d="M2 522l3 26q21 105 112 147q21 10 43.5 17.5t47 13.5t49.5 9t51 3h23h22q106 0 227 -74q26 -18 45 -57q26 -52 26 -110v-20q0 -12 -2 -28q0 -8 -1 -13.5t-8 -23.5q-20 -52 -66 -92q-44 -35 -90 -49q-95 -29 -113 -29l-109 -12l-43 -5l-36 -9q-23 -6 -42 -25t-33 -53 q0 -75 64 -75q40 0 139.5 42.5t179.5 42.5q54 0 89 -19q19 -9 34.5 -36.5t15.5 -54.5l-2 -17l-1 -265q-26 -26 -51 -26q-19 0 -29.5 9t-17.5 21l-2 257q-3 6 -3 20q0 12 -1.5 17.5t-6.5 15.5q-15 39 -63 39q-31 -5 -60 -19l-32 -16l-30 -19l-44 -27l-33 -13l-32 -9l-33 -7 l-33 -2q-58 0 -98 26q-51 32 -51 92l3 33q21 45 61 69.5t86 34.5l39 6l80 11q74 9 108 18l50 14l22 10q12 6 56 47q21 33 30 66q4 15 7 32t3 33q0 50 -30 115q-23 44 -79.5 73t-104.5 29l-18 -2l-17 1q-80 0 -123 -33.5t-61 -72.5l-9 -27l-5 -23q41 30 72 30q75 0 96 -50 q9 -24 9 -58q0 -17 -5 -29.5t-19 -26.5q-22 -20 -47 -30l-29 -9l-29 -2q-55 0 -94 32q-24 18 -38 40q-19 46 -19 76zM114 488q0 -42 21 -60q18 -15 36 -15q14 0 29 7q16 3 27 20q6 8 9 17l4 18q0 33 -19 58l-19 6l-18 2q-30 0 -48.5 -18.5t-21.5 -34.5z" />
<glyph unicode="&#xb6;" horiz-adv-x="1100" d="M300 888q0 94 60.5 152.5t175.5 58.5h317v-85h-72v-851h-85v851h-112v-851h-82v522q-41 0 -80 15q-35 15 -68 46q-54 56 -54 142z" />
<glyph unicode="&#xb7;" horiz-adv-x="717" d="M1 598q0 36 27 74q17 21 40 33q25 11 51 11q36 0 74 -27q17 -13 30.5 -39t13.5 -51q0 -36 -27 -74q-16 -21 -41.5 -32.5t-50.5 -11.5q-14 0 -37 6q-21 7 -36 20q-21 17 -33 40q-11 25 -11 51z" />
<glyph unicode="&#xc4;" horiz-adv-x="882" d="M-2 503l1 25l3 19q0 34 30 76q24 31 71 65q68 47 142 47q32 0 60.5 -7t62.5 -25q44 -21 68.5 -45t43.5 -65q8 -19 8 -43v-466q0 -8 27 -23q27 -12 70 -12q36 0 62 50q20 43 20 91v527l24 11q12 6 25 6q31 0 54 -17l-2 -526q0 -17 -12 -59l-3 -12q-3 -9 -5 -12 q-7 -21 -20 -36q-14 -23 -31.5 -39t-42.5 -25t-55 -9l-19 1h-19q-27 0 -105 36l-71 36v479q0 21 -12 54q-15 41 -43 65q-39 30 -86 30q-60 0 -104 -47q-18 -21 -28 -53q-4 -19 -6 -30t-2 -23q-3 -8 -3 -21q0 -26 6 -54.5t14 -32.5q41 27 58 33.5t41 6.5q41 0 75.5 -21.5 t34.5 -56.5t-25 -61q-10 -11 -57 -22l-41 -6q-13 -3 -48.5 11.5t-49.5 17.5l-6 -9l1 -149q26 38 82 38q51 0 97 -26.5t46 -71.5q0 -37 -13.5 -58t-43.5 -42q-10 -6 -47 -17q-30 -6 -62 -6q-75 0 -128 60l-15 21l-13 27q-5 17 -5 48v151q23 38 32 47t33 24l9 11l-2 4 q-15 3 -21 8l-32 30q-12 15 -18 33l-4 19zM121 123q-3 -27 15 -50.5t47 -23.5q27 0 48 18t21 46q0 23 -18.5 42.5t-43.5 19.5q-26 0 -44.5 -12.5t-24.5 -39.5zM146 389q0 -9 19 -21q9 -4 20 -7t23 -3q21 0 36 9t15 27q0 21 -17 30.5t-40 9.5q-20 0 -40 -12q-16 -13 -16 -33z " />
<glyph unicode="&#xc5;" horiz-adv-x="756" d="M0 164v105q8 58 50 78l22 2l-17 14q-36 36 -53 100v84q0 70 35 121q18 30 53 43l28 7q21 6 42 6q23 0 48 -5.5t33 -11.5q18 -12 31 -35t13 -55q0 -49 -29 -79t-78 -30q-54 0 -78 39l-4 -22l-4 -42q0 -50 29 -89q20 -28 60 -43q26 -9 50 -9v-53h-13h-10q-7 2 -10 2l-41 9 l-15 4l-21 7q-7 -7 -9 -12l-6 -13l-2 -2v-120l3 -43q15 -25 40.5 -43t51.5 -18q19 0 32 7t24 16l22 23q21 26 21 47l-2 179l18 11q14 6 30 6q27 0 47 -20v-184q0 -7 4.5 -16.5t9.5 -17.5q14 -22 29 -33l19 -13l17 -1h15q33 0 51 44q14 37 14 80v545l15 8q17 9 35 9 q27 0 53 -19v-542q-21 -90 -56 -134q-43 -52 -112 -52h-24l-30 3q-11 3 -27.5 15.5t-29.5 32.5l-13 28l-17 39q-36 -92 -116 -117q-20 -6 -38 -6t-26.5 1t-22 6t-27 10.5t-27.5 13.5t-26.5 19t-36.5 42q-11 14 -17.5 37t-6.5 37zM112 606q0 -36 43 -55l36 -2q18 0 36 21 q10 22 10 47q0 63 -66 63q-42 -6 -54 -35l-4 -17z" />
<glyph unicode="&#xc6;" horiz-adv-x="882" d="M2 544q0 70 60 121q54 42 138 54l40 3q52 0 101 -29q24 -13 62 -58l28 -40q24 35 62.5 73.5t82.5 50.5l19 4l22 3q20 0 61 -27q28 -20 51 -52l18 -30l10 -82l7 -100l3 -99q0 -130 -25 -234q-8 -37 -25 -83q-20 -18 -46 -18q-20 0 -34 7l-22 13q14 38 25 82q25 116 25 233 q0 126 -13 233l-7 48q-6 19 -13 27q-19 28 -48 28l-12 -1q-40 -6 -82 -81q-32 -61 -32 -82l7 -14q5 -13 5 -33v-156q0 -45 -15 -111l-16 -59q-3 -21 -65 -73q-73 -61 -135 -61l-32 -1l-25 -1q-24 0 -45.5 7.5t-53.5 30.5q-17 12 -30 27t-25 37t-24 71q0 75 21 105 q37 49 104 49q51 0 87 -30t36 -75q-21 -103 -105 -103l-11 1l35 -56q27 -24 68 -24q32 0 59 27q22 25 34 69l15 58q15 66 15 112l1 127l-58 -21q-70 -29 -105 -29q-58 0 -123 44q-75 51 -75 118zM98 556l1 -13q0 -13 1 -19t8.5 -21t23.5 -33q29 -30 68 -30q29 0 85 29t56 39 q0 34 -4 53q-9 57 -37 85q-16 14 -32 21.5t-33 7.5l-18 -2q-13 0 -17 -2q-43 -6 -72.5 -38.5t-29.5 -76.5zM106 225q0 -24 13.5 -41t36.5 -17l20 3q32 15 32 60q0 57 -60 57q-42 -8 -42 -62z" />
<glyph unicode="&#xc9;" horiz-adv-x="791" d="M0 545q0 60 43 104q22 22 43 33l35 15l28 11l22 7l16 3l51 10q21 3 55 3l30 1l14 1q21 0 42 -7l31 -12q31 -11 57 -31l32 -22l26 -17l21 -7q19 0 19 30l-2 15q-3 15 -5 17l-27 20q11 34 61 34q46 0 62 -38l4 -32q0 -39 -30 -63q-31 -20 -71 -20q-53 0 -78 25 q-42 44 -90 60q-46 17 -64 17q-19 0 -36.5 -1t-40 -4.5t-57 -19t-62 -56.5t-27.5 -82q0 -35 16 -54q13 -16 50 -33q24 -11 52 -19q26 -4 35.5 -4.5t21.5 -0.5q15 0 42 6l39 7h30q14 0 33 -4l39 -6q12 0 16 -2q6 0 23 -7l38 -13q13 -3 19 -8q21 -9 44 -29.5t39 -59.5 q8 -20 12 -38t4 -40q0 -27 -3.5 -46t-16.5 -45q-18 -43 -67 -92l-46 -22l-37 -16q-64 -23 -118 -23q-35 0 -71 9q-19 3 -33.5 9.5t-35.5 19.5l-12 -12q-10 -13 -20 -17l-13 -2l-15 1l-16 6l-14 8v371l-36 18l-35 19l-23 16q-24 21 -36 62l-5 22zM244 78l14 -7l26 -12l39 -11 l42 -3q34 0 68 8.5t63 24.5q18 12 37 56q9 22 14 44.5t5 46.5q0 26 -6.5 53.5t-20.5 52.5q-6 12 -16 19l-23 14l-17 8l-40 12q-33 9 -71 9q-20 0 -31 -2q-15 -1 -19.5 -2t-22.5 -6l-41 -10v-295z" />
<glyph unicode="&#xe6;" horiz-adv-x="820" d="M-18 363q0 53 10 126l10 70l1 23q0 10 8 32t23 41t27 29l33 22q21 12 51.5 18t51.5 6q47 0 83 -15q16 -8 55 -37q16 -13 29 -44l6 -28l4 16q12 37 37 56q28 22 52 33q40 19 64 19l42 -1q12 0 29 -7q26 -6 50.5 -31.5t34.5 -51t10 -71.5l7 -101l3 -116l-3 -122l-2 -71 l-3 -62l-12 -73q-22 -28 -50 -28q-9 0 -26 10l-24 15l8 65l5 60l3 106l4 100l-3 96l-2 67l-1 25q0 14 -4 29q0 35 -5 46q-3 12 -21 32q-23 23 -57 23l-29 -2q-16 0 -44 -47q-21 -36 -21 -52v-543q-6 0 -21.5 -12.5t-24.5 -12.5q-11 0 -32 12l-18 13l-2 146v201l1 97l1 90 l-4 31q-8 34 -26 52q-8 10 -26.5 15.5t-36.5 5.5q-21 0 -28 -2q-13 0 -23 -5q-38 -12 -59 -43q-3 -6 -8 -19t-5 -27l-10 -71l-7 -72l-3 -61l1 -67v-26t4 -36q0 -21 6 -51q12 18 35 28q30 10 50 10q25 0 36 -7l26 -25q31 -31 31 -76q0 -27 -11.5 -49t-34.5 -40l-16 -10 l-17 -10l-37 -4q-71 0 -118 62q-18 26 -32.5 57t-14.5 64l-5 53l-1 48zM115 123q-3 -17 5.5 -36t18.5 -30q10 -8 26 -8q19 0 34 19.5t15 44.5q0 26 -12.5 46.5t-35.5 20.5q-21 0 -33 -15t-18 -42z" />
<glyph unicode="&#xec;" horiz-adv-x="752" d="M5 537v10q12 59 37 100q30 46 75.5 66.5t83.5 20.5q47 0 87 -28l64 -60q15 34 45 61.5t68 27.5q23 0 37 -5q48 -12 84.5 -42.5t58.5 -80.5q2 -5 7 -23t7 -34t2 -53v-45v-13l-2 -22q0 -12 -9 -35q-12 -35 -35 -68q-18 -26 -50 -59q-54 -56 -119 -78q-60 -19 -141 -19 l-30 1l-25 4q-6 0 -7 -5q-9 0 -9 -11l2 -13l7 -17l12 -22l15 -4l29 1q58 0 115.5 28t76.5 28q66 0 73 -2q39 -6 62 -54l4 -21q0 -21 -23.5 -84.5t-23.5 -100.5q0 -52 4 -60.5t25 -14.5q11 -1 23.5 15t32.5 16q35 0 35 -27q0 -14 -43 -41q-52 -29 -102 -29q-25 0 -43 4.5 t-37 43.5l-6 13l-2 23v28l1 29q0 36 15 87l30 97q-3 11 -11 15q-5 4 -20 7h-14q-35 0 -78.5 -45.5t-107.5 -45.5q-44 0 -86 33.5t-66 82.5l-8 30l-6 27v15q-3 12 -4 18q0 9 30 9l52 -2l47 -2h12l31 3q107 21 131 32q59 22 98 81q21 34 31 77q5 30 5 84v31q0 29 -3.5 46 t-16.5 38q-17 28 -31 44t-45 22q-26 3 -61.5 -36.5t-42.5 -39.5l-51 33q-55 38 -84 38q-10 0 -19 -5q-24 -12 -36 -24q-11 -9 -23 -31l-13 -29l-7 -35q0 -13 9 -28q15 27 41.5 36.5t57.5 9.5q52 0 88 -29t36 -75q0 -31 -26 -58q-21 -21 -63 -42l-29 -10l-30 -4 q-26 0 -51 8.5t-56 26.5t-45 30q-17 15 -30 40q-7 12 -13 42zM156 455q0 -19 22 -38q21 -15 47 -15q28 0 48 12q22 16 22 41q0 23 -20 36.5t-50 13.5q-25 0 -47 -14t-22 -36z" />
<glyph unicode="&#xee;" horiz-adv-x="846" d="M-3 618q0 41 12 72.5t45 45.5l21 3q27 0 74 -24l47 -23l21 27q26 27 50 27q14 0 28 -10q23 -17 36.5 -64.5t13.5 -104.5q0 -45 -3.5 -75.5t-16.5 -69.5q-6 -22 -30.5 -54t-67.5 -76l-103 -102q-15 -19 -29 -50q-10 -30 -10 -48q0 -15 8 -26l31 10l31 4l27 -1q10 0 25 -7 l45 -14q7 0 11 -2h12q49 0 85 35q32 30 32 56v567l18 11q14 6 30 6q27 0 47 -20v-564q0 -7 4.5 -16.5t9.5 -17.5q14 -22 29 -33l19 -13l17 -1h15q33 0 51 44q14 37 14 80v545l15 8q17 9 35 9q27 0 53 -19v-542q-21 -90 -56 -134q-43 -52 -112 -52h-24l-30 3l-13 4l-16 11 q-10 8 -24 32l-17 35l-17 33l-6 -7l-7 -9l-9 -17l-15 -33q-9 -22 -25 -32t-34 -15.5t-45 -5.5h-16l-11 1l-81 17l-51 7q-22 0 -36 -4.5t-29 -19.5l-19 -4h-18l-19 1l1 15v16q-3 10 -4 14q-9 42 -9 61l1 25q0 8 7 25q6 25 27 58l74 63l60 54q50 47 68 99l16 73q6 39 6 79 t-6.5 60.5t-22.5 21.5q-15 0 -41 -29q-54 45 -92 45q-18 0 -30 -12t-20 -43l-3 -36l35 25q16 10 31 13q75 0 96 -50l4 -18l4 -18q0 -24 -25 -49q-7 -7 -17.5 -14t-27.5 -15l-29 -9l-29 -2q-13 0 -31 9l-19 16l-20 26l-13 24l-9 35zM67 547q0 -18 12 -38q13 -16 32 -16 q11 0 29 7q13 3 28 21q12 18 12 28q0 6 -7 17l-12 17l-19 6l-18 2q-19 0 -28 -3.5t-21 -15.5q-5 -7 -8 -25z" />
<glyph unicode="&#xf4;" horiz-adv-x="888" d="M-30 186q0 50 35 91q20 23 44.5 36t59.5 13q51 0 87 -30t36 -71q-6 -46 -43 -80q-45 -37 -71 -37l7 -11q11 -12 27 -12l20 3q12 3 24 14q34 24 52 84t18 137q0 63 -8.5 126.5t-22.5 109.5l-15 40l16 12q20 12 40 12q18 0 38.5 -9.5t21.5 -14.5l10 -19l7 -17 q18 -48 18 -99q0 -11 -1 -36.5t-1 -40.5l-5 -138q0 -30 -2 -54q-4 -29 -6 -45q9 -6 34 -49q21 -36 53 -45l26 -6l24 -2l21 1q7 0 21 7q32 12 56 78q11 35 19 93q3 27 5 57t2 64q0 121 -13.5 196.5t-53.5 147t-90.5 109.5t-123.5 38q-70 0 -154 -50q-63 -36 -127 -94l-52 -51 l-3 3l-1 13l4 73v22l48 38q55 41 122 71q87 39 163 39q103 0 173.5 -38t142.5 -136q48 -67 71 -171q8 -42 12 -93l4 -117q0 -111 -52.5 -216t-137.5 -132q-15 -3 -26 -5t-22 -2l-32 3l-26 4q-46 8 -102 46l-50 38q-3 -9 -30 -33l-48 -34l-15 -7l-22 -7l-25 -5l-24 -2h-12 q-6 0 -12 2q-41 9 -68 33q-25 25 -45 71l-14 43q-6 24 -6 41zM76 225l3 -25l10 -16q15 -17 37 -17l20 3q32 15 32 60q0 57 -60 57q-18 -3 -31 -22q-11 -19 -11 -40z" />
<glyph unicode="&#x152;" horiz-adv-x="790" d="M-4 124q0 48 7 82q6 40 28 72q77 85 133 156q50 65 64 118l9 37l4 24l4 24q0 22 -11 36t-40 14l-26 -3q-5 10 -22 10q-12 0 -18 -1t-24.5 -8t-31.5 -18q49 0 78 -23.5t29 -57.5q0 -22 -11 -40q-20 -36 -67 -36q-34 0 -62 17q-16 9 -28 33q-9 23 -9 48q0 19 2 31.5 t10.5 34.5t24.5 35t30.5 18t23.5 6.5l15 2.5h11.5t21.5 -4l35 -6l40 6l36 4q19 0 52 -26q17 -14 25 -35.5t8 -43.5l-1 -24l-4 -21l-7 -34q-6 -33 -94 -158l-58 -81l-48 -62q-18 -21 -32.5 -70.5t-14.5 -70.5l1 -9l5 -4l9 -2l31 3q16 0 25 -4l19 -10q15 -12 35.5 -18.5 t38.5 -6.5q25 0 49.5 9t33.5 16l21 27q10 22 10 42v573q0 6 13.5 11.5t21 7t17.5 1.5q12 0 29 -6.5t18 -13.5v-583q0 -19 18 -61q9 -17 26 -28q20 -10 39 -10l17 1q11 2 25 13.5t18 31.5l4 54v578q0 7 15.5 15.5t35.5 8.5q52 0 52 -23v-575q0 -18 -6 -33l-15 -33 q-12 -31 -38.5 -50t-71.5 -30l-21 -2l-15 -1q-51 0 -77 22q-24 23 -42 60q-15 36 -19 40q-17 -39 -30 -59q-9 -13 -45 -38q-16 -9 -34 -15l-18 -4l-19 -1q-26 0 -48 6.5t-46 21t-44 14.5q-41 0 -62 -44q-2 -5 -12 -8l-19 4l-26 4l2 15v14l-1 53zM60 595q0 9 4 17 q11 22 37 22q9 0 17 -4q22 -11 22 -37q0 -9 -4 -17q-11 -22 -37 -22q-9 0 -17 4q-22 11 -22 37z" />
<glyph unicode="&#x2000;" horiz-adv-x="766" />
<glyph unicode="&#x2001;" horiz-adv-x="1532" />
<glyph unicode="&#x2002;" horiz-adv-x="766" />
<glyph unicode="&#x2003;" horiz-adv-x="1532" />
<glyph unicode="&#x2004;" horiz-adv-x="510" />
<glyph unicode="&#x2005;" horiz-adv-x="383" />
<glyph unicode="&#x2006;" horiz-adv-x="255" />
<glyph unicode="&#x2007;" horiz-adv-x="255" />
<glyph unicode="&#x2008;" horiz-adv-x="191" />
<glyph unicode="&#x2009;" horiz-adv-x="306" />
<glyph unicode="&#x200a;" horiz-adv-x="85" />
<glyph unicode="&#x2010;" horiz-adv-x="752" d="M2 522l3 26q21 105 112 147q21 10 43.5 17.5t47 13.5t49.5 9t51 3h23h22q106 0 227 -74q26 -18 45 -57q26 -52 26 -110v-20q0 -12 -2 -28q0 -8 -1 -13.5t-8 -23.5q-20 -52 -66 -92q-44 -35 -90 -49q-95 -29 -113 -29l-109 -12l-43 -5l-36 -9q-23 -6 -42 -25t-33 -53 q0 -75 64 -75q40 0 139.5 42.5t179.5 42.5q54 0 89 -19q19 -9 34.5 -36.5t15.5 -54.5l-2 -17l-1 -265q-26 -26 -51 -26q-19 0 -29.5 9t-17.5 21l-2 257q-3 6 -3 20q0 12 -1.5 17.5t-6.5 15.5q-15 39 -63 39q-31 -5 -60 -19l-32 -16l-30 -19l-44 -27l-33 -13l-32 -9l-33 -7 l-33 -2q-58 0 -98 26q-51 32 -51 92l3 33q21 45 61 69.5t86 34.5l39 6l80 11q74 9 108 18l50 14l22 10q12 6 56 47q21 33 30 66q4 15 7 32t3 33q0 50 -30 115q-23 44 -79.5 73t-104.5 29l-18 -2l-17 1q-80 0 -123 -33.5t-61 -72.5l-9 -27l-5 -23q41 30 72 30q75 0 96 -50 q9 -24 9 -58q0 -17 -5 -29.5t-19 -26.5q-22 -20 -47 -30l-29 -9l-29 -2q-55 0 -94 32q-24 18 -38 40q-19 46 -19 76zM114 488q0 -42 21 -60q18 -15 36 -15q14 0 29 7q16 3 27 20q6 8 9 17l4 18q0 33 -19 58l-19 6l-18 2q-30 0 -48.5 -18.5t-21.5 -34.5z" />
<glyph unicode="&#x2011;" horiz-adv-x="752" d="M2 522l3 26q21 105 112 147q21 10 43.5 17.5t47 13.5t49.5 9t51 3h23h22q106 0 227 -74q26 -18 45 -57q26 -52 26 -110v-20q0 -12 -2 -28q0 -8 -1 -13.5t-8 -23.5q-20 -52 -66 -92q-44 -35 -90 -49q-95 -29 -113 -29l-109 -12l-43 -5l-36 -9q-23 -6 -42 -25t-33 -53 q0 -75 64 -75q40 0 139.5 42.5t179.5 42.5q54 0 89 -19q19 -9 34.5 -36.5t15.5 -54.5l-2 -17l-1 -265q-26 -26 -51 -26q-19 0 -29.5 9t-17.5 21l-2 257q-3 6 -3 20q0 12 -1.5 17.5t-6.5 15.5q-15 39 -63 39q-31 -5 -60 -19l-32 -16l-30 -19l-44 -27l-33 -13l-32 -9l-33 -7 l-33 -2q-58 0 -98 26q-51 32 -51 92l3 33q21 45 61 69.5t86 34.5l39 6l80 11q74 9 108 18l50 14l22 10q12 6 56 47q21 33 30 66q4 15 7 32t3 33q0 50 -30 115q-23 44 -79.5 73t-104.5 29l-18 -2l-17 1q-80 0 -123 -33.5t-61 -72.5l-9 -27l-5 -23q41 30 72 30q75 0 96 -50 q9 -24 9 -58q0 -17 -5 -29.5t-19 -26.5q-22 -20 -47 -30l-29 -9l-29 -2q-55 0 -94 32q-24 18 -38 40q-19 46 -19 76zM114 488q0 -42 21 -60q18 -15 36 -15q14 0 29 7q16 3 27 20q6 8 9 17l4 18q0 33 -19 58l-19 6l-18 2q-30 0 -48.5 -18.5t-21.5 -34.5z" />
<glyph unicode="&#x2012;" horiz-adv-x="752" d="M2 522l3 26q21 105 112 147q21 10 43.5 17.5t47 13.5t49.5 9t51 3h23h22q106 0 227 -74q26 -18 45 -57q26 -52 26 -110v-20q0 -12 -2 -28q0 -8 -1 -13.5t-8 -23.5q-20 -52 -66 -92q-44 -35 -90 -49q-95 -29 -113 -29l-109 -12l-43 -5l-36 -9q-23 -6 -42 -25t-33 -53 q0 -75 64 -75q40 0 139.5 42.5t179.5 42.5q54 0 89 -19q19 -9 34.5 -36.5t15.5 -54.5l-2 -17l-1 -265q-26 -26 -51 -26q-19 0 -29.5 9t-17.5 21l-2 257q-3 6 -3 20q0 12 -1.5 17.5t-6.5 15.5q-15 39 -63 39q-31 -5 -60 -19l-32 -16l-30 -19l-44 -27l-33 -13l-32 -9l-33 -7 l-33 -2q-58 0 -98 26q-51 32 -51 92l3 33q21 45 61 69.5t86 34.5l39 6l80 11q74 9 108 18l50 14l22 10q12 6 56 47q21 33 30 66q4 15 7 32t3 33q0 50 -30 115q-23 44 -79.5 73t-104.5 29l-18 -2l-17 1q-80 0 -123 -33.5t-61 -72.5l-9 -27l-5 -23q41 30 72 30q75 0 96 -50 q9 -24 9 -58q0 -17 -5 -29.5t-19 -26.5q-22 -20 -47 -30l-29 -9l-29 -2q-55 0 -94 32q-24 18 -38 40q-19 46 -19 76zM114 488q0 -42 21 -60q18 -15 36 -15q14 0 29 7q16 3 27 20q6 8 9 17l4 18q0 33 -19 58l-19 6l-18 2q-30 0 -48.5 -18.5t-21.5 -34.5z" />
<glyph unicode="&#x2013;" horiz-adv-x="1127" d="M2 522l5 26q33 105 176 147q34 10 69.5 17.5t74 13.5t78 9t80.5 3h36h35q167 0 358 -74q41 -18 71 -57q41 -52 41 -110v-20q0 -12 -3 -28q0 -8 -1.5 -13.5t-12.5 -23.5q-32 -52 -104 -92q-70 -35 -142 -49q-150 -29 -179 -29l-172 -12l-68 -5l-56 -9q-37 -6 -67 -25 t-52 -53q0 -75 101 -75q63 0 220 42.5t284 42.5q85 0 140 -19q30 -9 54.5 -36.5t24.5 -54.5l-3 -17l-2 -265q-41 -26 -80 -26q-30 0 -46.5 9t-27.5 21l-4 257q-4 6 -4 20q0 12 -2.5 17.5t-10.5 15.5q-24 39 -99 39q-49 -5 -95 -19l-51 -16l-47 -19l-69 -27l-52 -13l-51 -9 l-52 -7l-52 -2q-92 0 -155 26q-80 32 -80 92l5 33q33 45 96 69.5t136 34.5l61 6l126 11q117 9 171 18l79 14l34 10q19 6 89 47q33 33 47 66q6 15 11 32t5 33q0 50 -48 115q-36 44 -125 73t-165 29l-28 -2l-27 1q-126 0 -194 -33.5t-96 -72.5l-15 -27l-7 -23q64 30 113 30 q118 0 152 -50q14 -24 14 -58q0 -17 -8 -29.5t-30 -26.5q-35 -20 -74 -30l-46 -9l-46 -2q-87 0 -148 32q-38 18 -60 40q-30 46 -30 76zM179 488q0 -42 33 -60q28 -15 57 -15q22 0 45 7q26 3 43 20q9 8 14 17l7 18q0 33 -30 58l-30 6l-29 2q-47 0 -76.5 -18.5t-33.5 -34.5z " />
<glyph unicode="&#x2014;" horiz-adv-x="2151" d="M2 522l9 26q67 105 354 147q66 10 137 17.5t148.5 13.5t156.5 9t161 3h72h70q334 0 716 -74q82 -18 142 -57q82 -52 82 -110v-20q0 -12 -6 -28q0 -8 -3.5 -13.5t-25.5 -23.5q-63 -52 -208 -92q-139 -35 -284 -49q-300 -29 -357 -29l-344 -12l-135 -5l-114 -9 q-72 -6 -132 -25t-105 -53q0 -75 202 -75q127 0 441 42.5t566 42.5q171 0 281 -19q60 -9 109 -36.5t49 -54.5l-7 -17l-3 -265q-82 -26 -161 -26q-60 0 -93 9t-55 21l-6 257q-10 6 -10 20q0 12 -4.5 17.5t-20.5 15.5q-47 39 -199 39q-98 -5 -189 -19l-101 -16l-95 -19 l-139 -27l-104 -13l-101 -9l-104 -7l-104 -2q-183 0 -309 26q-161 32 -161 92l9 33q67 45 193 69.5t271 34.5l123 6l253 11q233 9 340 18l158 14l70 10q38 6 176 47q67 33 95 66q13 15 22.5 32t9.5 33q0 50 -95 115q-73 44 -251 73t-330 29l-57 -2l-53 1 q-253 0 -388.5 -33.5t-192.5 -72.5l-28 -27l-16 -23q129 30 227 30q237 0 303 -50q29 -24 29 -58q0 -17 -16 -29.5t-60 -26.5q-70 -20 -148 -30l-92 -9l-92 -2q-173 0 -296 32q-76 18 -120 40q-60 46 -60 76zM355 488q0 -42 67 -60q56 -15 113 -15q44 0 92 7q50 3 85 20 q19 8 28 17l13 18q0 33 -60 58l-60 6l-57 2q-94 0 -152.5 -18.5t-68.5 -34.5z" />
<glyph unicode="&#x2018;" horiz-adv-x="731" d="M-1 541l1 25l1 13l1 17q0 21 19.5 43t54.5 45l42 22q23 9 56 15t119 6q140 0 223 -75q72 -72 72 -203v-371q-6 -66 -52 -119q-37 -46 -111 -82q-25 -11 -64 -22l-32 -5l-34 -2h-21l-21 -1h-9h-7q-64 0 -145 40q-51 30 -72 90l-10 35l-10 58q0 6 16.5 21.5t36.5 15.5 q21 0 50 -25l5 -45l7 -40l6 -17l3 -12l5 -9q6 -14 27 -37q43 -43 137 -43q168 0 192 199v365v23v27q0 90 -32 128t-65 55q-20 9 -43 15t-58 6l-28 1q-154 0 -154 -98q39 21 91 21q25 0 45 -10q55 -26 55 -90q0 -16 -2 -20l-7 -28q-3 -17 -39 -43q-38 -22 -73 -22 q-73 0 -91 11l-24 16l-25 18q-16 11 -28 39l-6 23zM105 525q0 -42 27 -63q33 -21 50 -21q25 0 49 14.5t24 60.5q0 24 -18 46t-50 22q-82 0 -82 -59z" />
<glyph unicode="&#x2019;" horiz-adv-x="731" d="M-1 541l1 25l1 13l1 17q0 21 19.5 43t54.5 45l42 22q23 9 56 15t119 6q140 0 223 -75q72 -72 72 -203v-371q-6 -66 -52 -119q-37 -46 -111 -82q-25 -11 -64 -22l-32 -5l-34 -2h-21l-21 -1h-9h-7q-64 0 -145 40q-51 30 -72 90l-10 35l-10 58q0 6 16.5 21.5t36.5 15.5 q21 0 50 -25l5 -45l7 -40l6 -17l3 -12l5 -9q6 -14 27 -37q43 -43 137 -43q168 0 192 199v365v23v27q0 90 -32 128t-65 55q-20 9 -43 15t-58 6l-28 1q-154 0 -154 -98q39 21 91 21q25 0 45 -10q55 -26 55 -90q0 -16 -2 -20l-7 -28q-3 -17 -39 -43q-38 -22 -73 -22 q-73 0 -91 11l-24 16l-25 18q-16 11 -28 39l-6 23zM105 525q0 -42 27 -63q33 -21 50 -21q25 0 49 14.5t24 60.5q0 24 -18 46t-50 22q-82 0 -82 -59z" />
<glyph unicode="&#x201c;" horiz-adv-x="803" d="M-23 150q0 51 27.5 88.5t78.5 49.5l32 4l15 1q37 0 61 -14q24 -12 30 -45l1 -16l1 -14q0 -43 -22 -75q-15 -21 -45 -45l17 15l48 51q24 28 36.5 67.5t12.5 92.5v39l-4 28l-10 86q-6 50 -21 96l-15 40l16 12q20 12 40 12q18 0 38.5 -9.5t21.5 -14.5l20 -36q21 -47 30 -94 l6 -46l2 -49q0 -44 -3.5 -76.5t-15.5 -80.5q-6 -32 -19 -67q9 -6 34 -49q21 -36 53 -45l26 -6l24 -2l21 1q7 0 21 7q32 12 56 78q11 35 19 93q3 27 5 57t2 64q0 112 -14 185.5t-52 142.5t-109.5 104t-165.5 35q-59 0 -126 -44q-50 -31 -104 -82l-43 -45l-9 59l-1 46l-4 18 l51 35q25 16 58 34q26 14 61 31q81 36 139 36q118 0 202 -39.5t152 -134.5q48 -67 71 -171q8 -42 12 -93l4 -117q0 -111 -52.5 -216t-137.5 -132q-15 -3 -26 -5t-22 -2l-32 3l-26 4q-46 8 -102 46l-50 38q-3 -9 -30 -33l-48 -34q-14 -9 -41 -15t-46 -6h-11l-12 2 q-55 9 -90.5 52t-35.5 100zM45 171q-3 19 6 37t24.5 24t29.5 6q36 0 51 -31l5 -22q0 -37 -37 -53l-22 -4q-22 0 -36 10.5t-21 32.5z" />
<glyph unicode="&#x201d;" horiz-adv-x="639" d="M131 129v60h361v-60h-361zM131 393v62h357v-62h-357z" />
<glyph unicode="&#x201e;" horiz-adv-x="1024" d="M-33 637q0 24 18 53q41 48 85 48q45 0 82 -43q20 -22 20 -58q0 -37 -20 -67q-54 -90 -79 -137q-18 -39 -24 -95l-2 -84q0 -105 27 -159t92 -54q77 0 103 41q8 16 19 52l5 33l2 38v354q0 14 -10 15h-16q-23 0 -41.5 23.5t-18.5 56.5q0 71 84 71q26 -6 42 -20.5t22 -28.5 l6 -14q23 62 90 69q105 -33 149 -104l-4 -430l10 -29q4 -13 18 -38q8 -12 32 -28l43 -27l27 -15l29 -7h14q10 0 13 2l9 12q3 10 11 15q51 42 63 98v527q0 24 18 24q15 0 19 -4l10 -24v-504q0 -45 -42 -123l-12 -21l-15 -22q-5 -8 -29 -20q-16 -3 -31 -5t-32 -2q-15 0 -30 6 l-33 16l-45 26q-26 13 -41 31l-8 13q0 -23 -40 -58.5t-77 -35.5q-42 0 -71 41q-15 20 -15 47q0 57 45 93q22 16 45 16q20 0 43 -12l25 -19v402q-6 40 -41 75q-34 37 -61 37q-37 -6 -72 -50t-35 -95v-324q0 -219 -182 -219q-35 0 -59 11t-38 29q-28 31 -46 88l-9 55l-4 53 l-2 102l1 22l3 28q3 16 16 43q18 41 46 89l26 45h-63q-27 3 -45.5 26.5t-18.5 49.5zM6 645q0 -15 15 -30q16 -13 35 -13q14 0 22 4q33 15 33 41q0 39 -64 39q-41 -14 -41 -41zM244 645q0 -14 10 -24t27 -10q22 0 39 20l4 12q0 12 -15 27q-15 12 -32 12q-6 0 -17 -6 q-16 -13 -16 -31zM442 101q0 -9 21 -30q21 -18 33 -18q10 0 30 19q17 14 23 35q0 15 -24.5 30t-45.5 15q-9 0 -23 -18l-8 -16z" />
<glyph unicode="&#x2022;" horiz-adv-x="717" d="M109 718q0 103 75 178t178 75q106 0 180 -74t74 -179t-74.5 -179.5t-179.5 -74.5q-103 0 -178 74.5t-75 179.5z" />
<glyph unicode="&#x2026;" horiz-adv-x="778" d="M-33 637q0 24 18 53q41 48 85 48q45 0 82 -43q20 -22 20 -58q0 -37 -20 -67q-54 -90 -79 -137q-18 -39 -24 -95l-2 -84q0 -105 27 -159t92 -54q77 0 103 41q8 16 19 52l5 33l2 38v354q0 14 -10 15h-16q-23 0 -41.5 23.5t-18.5 56.5q0 71 84 71q26 -6 42 -20.5t22 -28.5 l6 -14q23 62 90 69q82 0 109.5 -45.5t27.5 -107.5v-563q0 -18 -14 -19q-13 0 -22 4l-11 5l-2 3v545q0 55 -17.5 93t-74.5 38q-37 -6 -72 -50t-35 -95v-324q0 -219 -182 -219q-35 0 -59 11t-38 29q-28 31 -46 88l-9 55l-4 53l-2 102l1 22l3 28q3 16 16 43q18 41 46 89l26 45 h-63q-27 3 -45.5 26.5t-18.5 49.5zM6 645q0 -15 15 -30q16 -13 35 -13q14 0 22 4q33 15 33 41q0 39 -64 39q-41 -14 -41 -41zM14 -240q0 21 7 41q12 30 69 57l16 6l17 3q24 0 48.5 -12.5t34.5 -19.5l13 -9l14 -11q40 -28 64 -39.5t51 -11.5q28 0 45 14l56 48q37 34 53 34 q15 0 22 -16l5 -16q0 -21 -32.5 -47.5t-88.5 -47t-92 -20.5l-21 3q-12 3 -22 11q-17 8 -46 36l-42 38q-17 12 -33 12q-15 0 -29 -14l-2 -2l-4 -8q5 -6 9 -8l12 -13l6 -11l2 -17q0 -20 -20.5 -36t-47.5 -16q-19 0 -27 5q-37 14 -37 67zM68 -248l9 -13q6 -9 13 -12 q9 0 16.5 6.5t8.5 18.5q0 27 -25 27zM244 645q0 -14 10 -24t27 -10q22 0 39 20l4 12q0 12 -15 27q-15 12 -32 12q-6 0 -17 -6q-16 -13 -16 -31z" />
<glyph unicode="&#x202f;" horiz-adv-x="306" />
<glyph unicode="&#x205f;" horiz-adv-x="383" />
<glyph unicode="&#x25fc;" horiz-adv-x="1045" d="M0 0v1045h1045v-1045h-1045z" />
</font>
</defs>
</svg>
